<svg width="24" height="24" viewBox="0 0 24 24" fill="none" xmlns="http://www.w3.org/2000/svg">
<path d="M5.87402 7L7.40902 14.246C7.62002 15.244 8.54902 15.923 9.56502 15.822L16.381 15.14C17.221 15.056 17.917 14.454 18.122 13.635L19.47 8.243C19.628 7.611 19.151 7 18.5 7H10.187" stroke="#2E1066" stroke-width="2" stroke-linecap="round" stroke-linejoin="round"/>
<path d="M5.87402 7L7.40902 14.246C7.62002 15.244 8.54902 15.923 9.56502 15.822L16.381 15.14C17.221 15.056 17.917 14.454 18.122 13.635L19.47 8.243C19.628 7.611 19.151 7 18.5 7H10.187" stroke="#410F9E" stroke-width="2" stroke-linecap="round" stroke-linejoin="round"/>
<path d="M5.87402 7L7.40902 14.246C7.62002 15.244 8.54902 15.923 9.56502 15.822L16.381 15.14C17.221 15.056 17.917 14.454 18.122 13.635L19.47 8.243C19.628 7.611 19.151 7 18.5 7H10.187" stroke="#453888" stroke-width="2" stroke-linecap="round" stroke-linejoin="round"/>
<path d="M5.87402 7L7.40902 14.246C7.62002 15.244 8.54902 15.923 9.56502 15.822L16.381 15.14C17.221 15.056 17.917 14.454 18.122 13.635L19.47 8.243C19.628 7.611 19.151 7 18.5 7H10.187" stroke="#5946D7" stroke-width="2" stroke-linecap="round" stroke-linejoin="round"/>
<path d="M5.874 7L5.224 4H3.5" stroke="#2E1066" stroke-width="2" stroke-linecap="round" stroke-linejoin="round"/>
<path d="M5.874 7L5.224 4H3.5" stroke="#410F9E" stroke-width="2" stroke-linecap="round" stroke-linejoin="round"/>
<path d="M5.874 7L5.224 4H3.5" stroke="#453888" stroke-width="2" stroke-linecap="round" stroke-linejoin="round"/>
<path d="M5.874 7L5.224 4H3.5" stroke="#5946D7" stroke-width="2" stroke-linecap="round" stroke-linejoin="round"/>
<path d="M17.1088 19.2668C16.9068 19.2668 16.7428 19.4308 16.7448 19.6328C16.7448 19.8348 16.9088 19.9988 17.1108 19.9988C17.3128 19.9988 17.4768 19.8348 17.4768 19.6328C17.4758 19.4308 17.3118 19.2668 17.1088 19.2668" stroke="#2E1066" stroke-width="2" stroke-linecap="round" stroke-linejoin="round"/>
<path d="M17.1088 19.2668C16.9068 19.2668 16.7428 19.4308 16.7448 19.6328C16.7448 19.8348 16.9088 19.9988 17.1108 19.9988C17.3128 19.9988 17.4768 19.8348 17.4768 19.6328C17.4758 19.4308 17.3118 19.2668 17.1088 19.2668" stroke="#410F9E" stroke-width="2" stroke-linecap="round" stroke-linejoin="round"/>
<path d="M17.1088 19.2668C16.9068 19.2668 16.7428 19.4308 16.7448 19.6328C16.7448 19.8348 16.9088 19.9988 17.1108 19.9988C17.3128 19.9988 17.4768 19.8348 17.4768 19.6328C17.4758 19.4308 17.3118 19.2668 17.1088 19.2668" stroke="#453888" stroke-width="2" stroke-linecap="round" stroke-linejoin="round"/>
<path d="M17.1088 19.2668C16.9068 19.2668 16.7428 19.4308 16.7448 19.6328C16.7448 19.8348 16.9088 19.9988 17.1108 19.9988C17.3128 19.9988 17.4768 19.8348 17.4768 19.6328C17.4758 19.4308 17.3118 19.2668 17.1088 19.2668" stroke="#5946D7" stroke-width="2" stroke-linecap="round" stroke-linejoin="round"/>
<path d="M8.69724 19.2673C8.49524 19.2673 8.33124 19.4313 8.33324 19.6333C8.33124 19.8363 8.49624 20.0003 8.69824 20.0003C8.90024 20.0003 9.06424 19.8363 9.06424 19.6343C9.06424 19.4313 8.90024 19.2673 8.69724 19.2673" stroke="#2E1066" stroke-width="2" stroke-linecap="round" stroke-linejoin="round"/>
<path d="M8.69724 19.2673C8.49524 19.2673 8.33124 19.4313 8.33324 19.6333C8.33124 19.8363 8.49624 20.0003 8.69824 20.0003C8.90024 20.0003 9.06424 19.8363 9.06424 19.6343C9.06424 19.4313 8.90024 19.2673 8.69724 19.2673" stroke="#410F9E" stroke-width="2" stroke-linecap="round" stroke-linejoin="round"/>
<path d="M8.69724 19.2673C8.49524 19.2673 8.33124 19.4313 8.33324 19.6333C8.33124 19.8363 8.49624 20.0003 8.69824 20.0003C8.90024 20.0003 9.06424 19.8363 9.06424 19.6343C9.06424 19.4313 8.90024 19.2673 8.69724 19.2673" stroke="#453888" stroke-width="2" stroke-linecap="round" stroke-linejoin="round"/>
<path d="M8.69724 19.2673C8.49524 19.2673 8.33124 19.4313 8.33324 19.6333C8.33124 19.8363 8.49624 20.0003 8.69824 20.0003C8.90024 20.0003 9.06424 19.8363 9.06424 19.6343C9.06424 19.4313 8.90024 19.2673 8.69724 19.2673" stroke="#5946D7" stroke-width="2" stroke-linecap="round" stroke-linejoin="round"/>
</svg>
