<svg width="117" height="20" viewBox="0 0 117 20" fill="none" xmlns="http://www.w3.org/2000/svg">
<g clip-path="url(#clip0_8_7966)">
<path d="M6.71215 4.58985L8.21558 7.76128L11.2944 8.08785C11.4503 8.10297 11.5981 8.16419 11.719 8.2637C11.8399 8.3632 11.9284 8.49648 11.9732 8.64651C12.018 8.79654 12.017 8.95652 11.9705 9.10602C11.9239 9.25552 11.8339 9.38776 11.7119 9.48585L9.25701 11.5044L10.0164 14.8979C10.0504 15.0487 10.0392 15.2062 9.98425 15.3507C9.92931 15.4952 9.83307 15.6203 9.70751 15.7105C9.58195 15.8007 9.43262 15.852 9.27813 15.8579C9.12364 15.8638 8.97083 15.8242 8.83873 15.7439L5.99987 14.0167L3.15844 15.743C3.02627 15.8232 2.87346 15.8627 2.719 15.8567C2.56454 15.8507 2.41524 15.7995 2.28967 15.7094C2.16409 15.6192 2.06778 15.4942 2.0127 15.3497C1.95762 15.2053 1.9462 15.0479 1.97987 14.897L2.74273 11.5044L0.287869 9.48585C0.166687 9.38749 0.0774569 9.25534 0.0315014 9.10619C-0.014454 8.95703 -0.015063 8.79758 0.0297519 8.64807C0.0745667 8.49857 0.162785 8.36575 0.283213 8.26646C0.40364 8.16718 0.550847 8.1059 0.706155 8.09042L3.78416 7.76385L5.28758 4.58985C5.35158 4.45513 5.45248 4.34132 5.57855 4.26163C5.70463 4.18195 5.85072 4.13965 5.99987 4.13965C6.14902 4.13965 6.29511 4.18195 6.42119 4.26163C6.54726 4.34132 6.64816 4.45513 6.71215 4.58985Z" fill="#FF9431"/>
</g>
<g clip-path="url(#clip1_8_7966)">
<path d="M21.7122 4.58985L23.2156 7.76128L26.2944 8.08785C26.4503 8.10297 26.5981 8.16419 26.719 8.2637C26.8399 8.3632 26.9284 8.49648 26.9732 8.64651C27.018 8.79654 27.017 8.95652 26.9705 9.10602C26.9239 9.25552 26.8339 9.38776 26.7119 9.48585L24.257 11.5044L25.0164 14.8979C25.0504 15.0487 25.0392 15.2062 24.9842 15.3507C24.9293 15.4952 24.8331 15.6203 24.7075 15.7105C24.5819 15.8007 24.4326 15.852 24.2781 15.8579C24.1236 15.8638 23.9708 15.8242 23.8387 15.7439L20.9999 14.0167L18.1584 15.743C18.0263 15.8232 17.8735 15.8627 17.719 15.8567C17.5645 15.8507 17.4152 15.7995 17.2897 15.7094C17.1641 15.6192 17.0678 15.4942 17.0127 15.3497C16.9576 15.2053 16.9462 15.0479 16.9799 14.897L17.7427 11.5044L15.2879 9.48585C15.1667 9.38749 15.0775 9.25534 15.0315 9.10619C14.9855 8.95703 14.9849 8.79758 15.0298 8.64807C15.0746 8.49857 15.1628 8.36575 15.2832 8.26646C15.4036 8.16718 15.5508 8.1059 15.7062 8.09042L18.7842 7.76385L20.2876 4.58985C20.3516 4.45513 20.4525 4.34132 20.5786 4.26163C20.7046 4.18195 20.8507 4.13965 20.9999 4.13965C21.149 4.13965 21.2951 4.18195 21.4212 4.26163C21.5473 4.34132 21.6482 4.45513 21.7122 4.58985Z" fill="#FF9431"/>
</g>
<g clip-path="url(#clip2_8_7966)">
<path d="M36.7122 4.58985L38.2156 7.76128L41.2944 8.08785C41.4503 8.10297 41.5981 8.16419 41.719 8.2637C41.8399 8.3632 41.9284 8.49648 41.9732 8.64651C42.018 8.79654 42.017 8.95652 41.9705 9.10602C41.9239 9.25552 41.8339 9.38776 41.7119 9.48585L39.257 11.5044L40.0164 14.8979C40.0504 15.0487 40.0392 15.2062 39.9842 15.3507C39.9293 15.4952 39.8331 15.6203 39.7075 15.7105C39.5819 15.8007 39.4326 15.852 39.2781 15.8579C39.1236 15.8638 38.9708 15.8242 38.8387 15.7439L35.9999 14.0167L33.1584 15.743C33.0263 15.8232 32.8735 15.8627 32.719 15.8567C32.5645 15.8507 32.4152 15.7995 32.2897 15.7094C32.1641 15.6192 32.0678 15.4942 32.0127 15.3497C31.9576 15.2053 31.9462 15.0479 31.9799 14.897L32.7427 11.5044L30.2879 9.48585C30.1667 9.38749 30.0775 9.25534 30.0315 9.10619C29.9855 8.95703 29.9849 8.79758 30.0298 8.64807C30.0746 8.49857 30.1628 8.36575 30.2832 8.26646C30.4036 8.16718 30.5508 8.1059 30.7062 8.09042L33.7842 7.76385L35.2876 4.58985C35.3516 4.45513 35.4525 4.34132 35.5786 4.26163C35.7046 4.18195 35.8507 4.13965 35.9999 4.13965C36.149 4.13965 36.2951 4.18195 36.4212 4.26163C36.5473 4.34132 36.6482 4.45513 36.7122 4.58985Z" fill="#FF9431"/>
</g>
<g clip-path="url(#clip3_8_7966)">
<path d="M51.7122 4.58985L53.2156 7.76128L56.2944 8.08785C56.4503 8.10297 56.5981 8.16419 56.719 8.2637C56.8399 8.3632 56.9284 8.49648 56.9732 8.64651C57.018 8.79654 57.017 8.95652 56.9705 9.10602C56.9239 9.25552 56.8339 9.38776 56.7119 9.48585L54.257 11.5044L55.0164 14.8979C55.0504 15.0487 55.0392 15.2062 54.9842 15.3507C54.9293 15.4952 54.8331 15.6203 54.7075 15.7105C54.5819 15.8007 54.4326 15.852 54.2781 15.8579C54.1236 15.8638 53.9708 15.8242 53.8387 15.7439L50.9999 14.0167L48.1584 15.743C48.0263 15.8232 47.8735 15.8627 47.719 15.8567C47.5645 15.8507 47.4152 15.7995 47.2897 15.7094C47.1641 15.6192 47.0678 15.4942 47.0127 15.3497C46.9576 15.2053 46.9462 15.0479 46.9799 14.897L47.7427 11.5044L45.2879 9.48585C45.1667 9.38749 45.0775 9.25534 45.0315 9.10619C44.9855 8.95703 44.9849 8.79758 45.0298 8.64807C45.0746 8.49857 45.1628 8.36575 45.2832 8.26646C45.4036 8.16718 45.5508 8.1059 45.7062 8.09042L48.7842 7.76385L50.2876 4.58985C50.3516 4.45513 50.4525 4.34132 50.5786 4.26163C50.7046 4.18195 50.8507 4.13965 50.9999 4.13965C51.149 4.13965 51.2951 4.18195 51.4212 4.26163C51.5473 4.34132 51.6482 4.45513 51.7122 4.58985Z" fill="#FF9431"/>
</g>
<g clip-path="url(#clip4_8_7966)">
<path d="M66.7122 4.58985L68.2156 7.76128L71.2944 8.08785C71.4503 8.10297 71.5981 8.16419 71.719 8.2637C71.8399 8.3632 71.9284 8.49648 71.9732 8.64651C72.018 8.79654 72.017 8.95652 71.9705 9.10602C71.9239 9.25552 71.8339 9.38776 71.7119 9.48585L69.257 11.5044L70.0164 14.8979C70.0504 15.0487 70.0392 15.2062 69.9842 15.3507C69.9293 15.4952 69.8331 15.6203 69.7075 15.7105C69.5819 15.8007 69.4326 15.852 69.2781 15.8579C69.1236 15.8638 68.9708 15.8242 68.8387 15.7439L65.9999 14.0167L63.1584 15.743C63.0263 15.8232 62.8735 15.8627 62.719 15.8567C62.5645 15.8507 62.4152 15.7995 62.2897 15.7094C62.1641 15.6192 62.0678 15.4942 62.0127 15.3497C61.9576 15.2053 61.9462 15.0479 61.9799 14.897L62.7427 11.5044L60.2879 9.48585C60.1667 9.38749 60.0775 9.25534 60.0315 9.10619C59.9855 8.95703 59.9849 8.79758 60.0298 8.64807C60.0746 8.49857 60.1628 8.36575 60.2832 8.26646C60.4036 8.16718 60.5508 8.1059 60.7062 8.09042L63.7842 7.76385L65.2876 4.58985C65.3516 4.45513 65.4525 4.34132 65.5786 4.26163C65.7046 4.18195 65.8507 4.13965 65.9999 4.13965C66.149 4.13965 66.2951 4.18195 66.4212 4.26163C66.5473 4.34132 66.6482 4.45513 66.7122 4.58985Z" fill="#C5C3C8"/>
<mask id="mask0_8_7966" style="mask-type:alpha" maskUnits="userSpaceOnUse" x="59" y="4" width="14" height="12">
<path d="M66.7122 4.58985L68.2156 7.76128L71.2944 8.08785C71.4503 8.10297 71.5981 8.16419 71.719 8.2637C71.8399 8.3632 71.9284 8.49648 71.9732 8.64651C72.018 8.79654 72.017 8.95652 71.9705 9.10602C71.9239 9.25552 71.8339 9.38776 71.7119 9.48585L69.257 11.5044L70.0164 14.8979C70.0504 15.0487 70.0392 15.2062 69.9842 15.3507C69.9293 15.4952 69.8331 15.6203 69.7075 15.7105C69.5819 15.8007 69.4326 15.852 69.2781 15.8579C69.1236 15.8638 68.9708 15.8242 68.8387 15.7439L65.9999 14.0167L63.1584 15.743C63.0263 15.8232 62.8735 15.8627 62.719 15.8567C62.5645 15.8507 62.4152 15.7995 62.2897 15.7094C62.1641 15.6192 62.0678 15.4942 62.0127 15.3497C61.9576 15.2053 61.9462 15.0479 61.9799 14.897L62.7427 11.5044L60.2879 9.48585C60.1667 9.38749 60.0775 9.25534 60.0315 9.10619C59.9855 8.95703 59.9849 8.79758 60.0298 8.64807C60.0746 8.49857 60.1628 8.36575 60.2832 8.26646C60.4036 8.16718 60.5508 8.1059 60.7062 8.09042L63.7842 7.76385L65.2876 4.58985C65.3516 4.45513 65.4525 4.34132 65.5786 4.26163C65.7046 4.18195 65.8507 4.13965 65.9999 4.13965C66.149 4.13965 66.2951 4.18195 66.4212 4.26163C66.5473 4.34132 66.6482 4.45513 66.7122 4.58985Z" fill="#FF9431"/>
</mask>
<g mask="url(#mask0_8_7966)">
<rect x="66" y="4" width="6" height="12" fill="#C5C3C8"/>
</g>
</g>
<path d="M84.3711 11.1133H83.3867V13H82.2725V11.1133H78.3486V10.1973L82.0605 4.18164H83.3867V10.1289H84.3711V11.1133ZM82.2725 10.1289V5.78809L79.6133 10.1289H82.2725ZM85.2188 12.3711C85.2188 12.1569 85.2803 11.986 85.4033 11.8584C85.5309 11.7308 85.7018 11.667 85.916 11.667C86.1302 11.667 86.2988 11.7308 86.4219 11.8584C86.5495 11.986 86.6133 12.1569 86.6133 12.3711C86.6133 12.5853 86.5495 12.7562 86.4219 12.8838C86.2988 13.0068 86.1302 13.0684 85.916 13.0684C85.7018 13.0684 85.5309 13.0068 85.4033 12.8838C85.2803 12.7562 85.2188 12.5853 85.2188 12.3711ZM88.7188 8.59082C88.7188 9.18783 88.7826 9.70508 88.9102 10.1426C89.0423 10.5801 89.2155 10.9447 89.4297 11.2363C89.6439 11.5234 89.8877 11.7376 90.1611 11.8789C90.4391 12.0202 90.7262 12.0908 91.0225 12.0908C91.3232 12.0908 91.6104 12.0202 91.8838 11.8789C92.1618 11.7376 92.4079 11.5234 92.6221 11.2363C92.8363 10.9447 93.0072 10.5801 93.1348 10.1426C93.2669 9.70508 93.333 9.18783 93.333 8.59082C93.333 7.99382 93.2669 7.47656 93.1348 7.03906C93.0072 6.59701 92.8363 6.23242 92.6221 5.94531C92.4079 5.65365 92.1618 5.43945 91.8838 5.30273C91.6104 5.16146 91.3232 5.09082 91.0225 5.09082C90.7217 5.09082 90.4346 5.16146 90.1611 5.30273C89.8877 5.43945 89.6439 5.65365 89.4297 5.94531C89.2155 6.23242 89.0423 6.59701 88.9102 7.03906C88.7826 7.47656 88.7188 7.99382 88.7188 8.59082ZM94.4541 8.59082C94.4541 9.31087 94.3607 9.94889 94.1738 10.5049C93.987 11.0563 93.734 11.5234 93.415 11.9062C93.1006 12.2891 92.7383 12.5785 92.3281 12.7744C91.918 12.9704 91.4827 13.0684 91.0225 13.0684C90.5667 13.0684 90.1315 12.9704 89.7168 12.7744C89.3021 12.5785 88.9375 12.2891 88.623 11.9062C88.3132 11.5234 88.0648 11.0563 87.8779 10.5049C87.6911 9.94889 87.5977 9.31087 87.5977 8.59082C87.5977 7.87077 87.6911 7.23275 87.8779 6.67676C88.0648 6.12077 88.3132 5.65365 88.623 5.27539C88.9375 4.89258 89.3021 4.60319 89.7168 4.40723C90.1315 4.21126 90.5667 4.11328 91.0225 4.11328C91.4782 4.11328 91.9111 4.21126 92.3213 4.40723C92.736 4.60319 93.1006 4.89258 93.415 5.27539C93.734 5.65365 93.987 6.12077 94.1738 6.67676C94.3607 7.23275 94.4541 7.87077 94.4541 8.59082Z" fill="#1C1D1E"/>
<path d="M99.6973 9.84863C99.6973 10.5778 99.7839 11.2637 99.957 11.9062C100.13 12.5443 100.324 13.1139 100.538 13.6152C100.78 14.194 101.06 14.7363 101.379 15.2422L100.675 15.7275C100.31 15.2308 99.9844 14.6816 99.6973 14.0801C99.4557 13.556 99.2324 12.9385 99.0273 12.2275C98.8223 11.512 98.7197 10.7191 98.7197 9.84863C98.7197 8.99186 98.8223 8.20345 99.0273 7.4834C99.2324 6.76335 99.4557 6.14355 99.6973 5.62402C99.9844 5.0179 100.31 4.46647 100.675 3.96973L101.379 4.46191C101.06 4.96777 100.78 5.50781 100.538 6.08203C100.324 6.58789 100.13 7.16211 99.957 7.80469C99.7839 8.44727 99.6973 9.12858 99.6973 9.84863ZM105.289 7.18945C105.672 7.18945 106.034 7.26465 106.376 7.41504C106.718 7.56543 107.014 7.77051 107.265 8.03027C107.52 8.29004 107.72 8.59993 107.866 8.95996C108.017 9.31999 108.092 9.70964 108.092 10.1289C108.092 10.5482 108.017 10.9378 107.866 11.2979C107.72 11.6579 107.515 11.9701 107.251 12.2344C106.991 12.4941 106.681 12.6992 106.321 12.8496C105.961 12.9954 105.572 13.0684 105.152 13.0684C104.751 13.0684 104.384 13.0091 104.052 12.8906C103.724 12.7676 103.437 12.6012 103.19 12.3916C102.949 12.182 102.751 11.9382 102.596 11.6602C102.441 11.3776 102.336 11.0768 102.281 10.7578H103.402C103.475 11.1133 103.66 11.4255 103.956 11.6943C104.257 11.9587 104.656 12.0908 105.152 12.0908C105.412 12.0908 105.651 12.0452 105.87 11.9541C106.093 11.8584 106.285 11.7262 106.444 11.5576C106.608 11.389 106.736 11.1839 106.827 10.9424C106.923 10.7008 106.971 10.4297 106.971 10.1289C106.971 9.5319 106.8 9.05566 106.458 8.7002C106.121 8.34473 105.686 8.16699 105.152 8.16699C104.833 8.16699 104.567 8.22396 104.353 8.33789C104.138 8.45182 103.965 8.57259 103.833 8.7002C103.674 8.8597 103.553 9.03288 103.471 9.21973H102.493L103.054 4.18164H107.531V5.22754H104.031L103.751 7.75C103.865 7.64518 104.002 7.55176 104.161 7.46973C104.293 7.39681 104.453 7.33301 104.64 7.27832C104.831 7.21908 105.048 7.18945 105.289 7.18945ZM111.872 4.18164V13H110.751V5.71973L109.493 6.56055L109.001 5.71973L111.175 4.18164H111.872ZM114.948 9.84863C114.948 9.12858 114.862 8.44727 114.688 7.80469C114.515 7.16211 114.322 6.58789 114.107 6.08203C113.866 5.50326 113.586 4.96322 113.267 4.46191L113.964 3.96973C114.328 4.46647 114.657 5.0179 114.948 5.62402C115.19 6.14811 115.413 6.77018 115.618 7.49023C115.823 8.20573 115.926 8.99186 115.926 9.84863C115.926 10.7145 115.823 11.5052 115.618 12.2207C115.413 12.9362 115.19 13.556 114.948 14.0801C114.661 14.6862 114.333 15.2354 113.964 15.7275L113.267 15.2422C113.586 14.7363 113.866 14.194 114.107 13.6152C114.322 13.1094 114.515 12.5374 114.688 11.8994C114.862 11.2614 114.948 10.5778 114.948 9.84863Z" fill="#5F6569"/>
<defs>
<clipPath id="clip0_8_7966">
<rect width="12" height="12" fill="white" transform="translate(0 4)"/>
</clipPath>
<clipPath id="clip1_8_7966">
<rect width="12" height="12" fill="white" transform="translate(15 4)"/>
</clipPath>
<clipPath id="clip2_8_7966">
<rect width="12" height="12" fill="white" transform="translate(30 4)"/>
</clipPath>
<clipPath id="clip3_8_7966">
<rect width="12" height="12" fill="white" transform="translate(45 4)"/>
</clipPath>
<clipPath id="clip4_8_7966">
<rect width="12" height="12" fill="white" transform="translate(60 4)"/>
</clipPath>
</defs>
</svg>
