<svg width="32" height="32" viewBox="0 0 32 32" fill="none" xmlns="http://www.w3.org/2000/svg">
<g clip-path="url(#clip0_1_5390)">
<path fill-rule="evenodd" clip-rule="evenodd" d="M25.4284 6.57199C30.6354 11.779 30.6354 20.2212 25.4284 25.4281C20.2214 30.6351 11.7792 30.6351 6.57223 25.4281C1.36525 20.2211 1.36525 11.7789 6.57223 6.57199C11.7792 1.365 20.2214 1.365 25.4284 6.57199Z" fill="#5946D7" fill-opacity="0.1"/>
<path d="M25.4284 6.57199C30.6354 11.779 30.6354 20.2212 25.4284 25.4281C20.2214 30.6351 11.7792 30.6351 6.57223 25.4281C1.36525 20.2211 1.36525 11.7789 6.57223 6.57199C11.7792 1.365 20.2214 1.365 25.4284 6.57199" stroke="#2E1066" stroke-width="2" stroke-linecap="round" stroke-linejoin="round"/>
<path d="M25.4284 6.57199C30.6354 11.779 30.6354 20.2212 25.4284 25.4281C20.2214 30.6351 11.7792 30.6351 6.57223 25.4281C1.36525 20.2211 1.36525 11.7789 6.57223 6.57199C11.7792 1.365 20.2214 1.365 25.4284 6.57199" stroke="#410F9E" stroke-width="2" stroke-linecap="round" stroke-linejoin="round"/>
<path d="M25.4284 6.57199C30.6354 11.779 30.6354 20.2212 25.4284 25.4281C20.2214 30.6351 11.7792 30.6351 6.57223 25.4281C1.36525 20.2211 1.36525 11.7789 6.57223 6.57199C11.7792 1.365 20.2214 1.365 25.4284 6.57199" stroke="#453888" stroke-width="2" stroke-linecap="round" stroke-linejoin="round"/>
<path d="M25.4284 6.57199C30.6354 11.779 30.6354 20.2212 25.4284 25.4281C20.2214 30.6351 11.7792 30.6351 6.57223 25.4281C1.36525 20.2211 1.36525 11.7789 6.57223 6.57199C11.7792 1.365 20.2214 1.365 25.4284 6.57199" stroke="#5946D7" stroke-width="2" stroke-linecap="round" stroke-linejoin="round"/>
<path fill-rule="evenodd" clip-rule="evenodd" d="M22.6 9.40042C26.2449 13.0453 26.2449 18.9548 22.6 22.5997C18.9551 26.2446 13.0456 26.2446 9.40066 22.5997C5.75577 18.9548 5.75577 13.0453 9.40066 9.40042C13.0456 5.75552 18.9551 5.75552 22.6 9.40042Z" fill="white"/>
<path d="M22.6 9.40042C26.2449 13.0453 26.2449 18.9548 22.6 22.5997C18.9551 26.2446 13.0456 26.2446 9.40066 22.5997C5.75577 18.9548 5.75577 13.0453 9.40066 9.40042C13.0456 5.75552 18.9551 5.75552 22.6 9.40042" stroke="#2E1066" stroke-width="2" stroke-linecap="round" stroke-linejoin="round"/>
<path d="M22.6 9.40042C26.2449 13.0453 26.2449 18.9548 22.6 22.5997C18.9551 26.2446 13.0456 26.2446 9.40066 22.5997C5.75577 18.9548 5.75577 13.0453 9.40066 9.40042C13.0456 5.75552 18.9551 5.75552 22.6 9.40042" stroke="#410F9E" stroke-width="2" stroke-linecap="round" stroke-linejoin="round"/>
<path d="M22.6 9.40042C26.2449 13.0453 26.2449 18.9548 22.6 22.5997C18.9551 26.2446 13.0456 26.2446 9.40066 22.5997C5.75577 18.9548 5.75577 13.0453 9.40066 9.40042C13.0456 5.75552 18.9551 5.75552 22.6 9.40042" stroke="#453888" stroke-width="2" stroke-linecap="round" stroke-linejoin="round"/>
<path d="M22.6 9.40042C26.2449 13.0453 26.2449 18.9548 22.6 22.5997C18.9551 26.2446 13.0456 26.2446 9.40066 22.5997C5.75577 18.9548 5.75577 13.0453 9.40066 9.40042C13.0456 5.75552 18.9551 5.75552 22.6 9.40042" stroke="#5946D7" stroke-width="2" stroke-linecap="round" stroke-linejoin="round"/>
<path d="M16.0002 13.3334V6.66675" stroke="#2E1066" stroke-width="2" stroke-linecap="round" stroke-linejoin="round"/>
<path d="M16.0002 13.3334V6.66675" stroke="#410F9E" stroke-width="2" stroke-linecap="round" stroke-linejoin="round"/>
<path d="M16.0002 13.3334V6.66675" stroke="#453888" stroke-width="2" stroke-linecap="round" stroke-linejoin="round"/>
<path d="M16.0002 13.3334V6.66675" stroke="#5946D7" stroke-width="2" stroke-linecap="round" stroke-linejoin="round"/>
<path d="M16.0002 25.3334V18.6667" stroke="#2E1066" stroke-width="2" stroke-linecap="round" stroke-linejoin="round"/>
<path d="M16.0002 25.3334V18.6667" stroke="#410F9E" stroke-width="2" stroke-linecap="round" stroke-linejoin="round"/>
<path d="M16.0002 25.3334V18.6667" stroke="#453888" stroke-width="2" stroke-linecap="round" stroke-linejoin="round"/>
<path d="M16.0002 25.3334V18.6667" stroke="#5946D7" stroke-width="2" stroke-linecap="round" stroke-linejoin="round"/>
<path d="M17.8804 14.1201L22.6004 9.40015" stroke="#2E1066" stroke-width="2" stroke-linecap="round" stroke-linejoin="round"/>
<path d="M17.8804 14.1201L22.6004 9.40015" stroke="#410F9E" stroke-width="2" stroke-linecap="round" stroke-linejoin="round"/>
<path d="M17.8804 14.1201L22.6004 9.40015" stroke="#453888" stroke-width="2" stroke-linecap="round" stroke-linejoin="round"/>
<path d="M17.8804 14.1201L22.6004 9.40015" stroke="#5946D7" stroke-width="2" stroke-linecap="round" stroke-linejoin="round"/>
<path d="M9.40039 22.6001L14.1204 17.8801" stroke="#2E1066" stroke-width="2" stroke-linecap="round" stroke-linejoin="round"/>
<path d="M9.40039 22.6001L14.1204 17.8801" stroke="#410F9E" stroke-width="2" stroke-linecap="round" stroke-linejoin="round"/>
<path d="M9.40039 22.6001L14.1204 17.8801" stroke="#453888" stroke-width="2" stroke-linecap="round" stroke-linejoin="round"/>
<path d="M9.40039 22.6001L14.1204 17.8801" stroke="#5946D7" stroke-width="2" stroke-linecap="round" stroke-linejoin="round"/>
<path d="M18.667 16.0002H25.3337" stroke="#2E1066" stroke-width="2" stroke-linecap="round" stroke-linejoin="round"/>
<path d="M18.667 16.0002H25.3337" stroke="#410F9E" stroke-width="2" stroke-linecap="round" stroke-linejoin="round"/>
<path d="M18.667 16.0002H25.3337" stroke="#453888" stroke-width="2" stroke-linecap="round" stroke-linejoin="round"/>
<path d="M18.667 16.0002H25.3337" stroke="#5946D7" stroke-width="2" stroke-linecap="round" stroke-linejoin="round"/>
<path d="M6.66699 16.0002H13.3337" stroke="#2E1066" stroke-width="2" stroke-linecap="round" stroke-linejoin="round"/>
<path d="M6.66699 16.0002H13.3337" stroke="#410F9E" stroke-width="2" stroke-linecap="round" stroke-linejoin="round"/>
<path d="M6.66699 16.0002H13.3337" stroke="#453888" stroke-width="2" stroke-linecap="round" stroke-linejoin="round"/>
<path d="M6.66699 16.0002H13.3337" stroke="#5946D7" stroke-width="2" stroke-linecap="round" stroke-linejoin="round"/>
<path d="M17.8804 17.8801L22.6004 22.6001" stroke="#2E1066" stroke-width="2" stroke-linecap="round" stroke-linejoin="round"/>
<path d="M17.8804 17.8801L22.6004 22.6001" stroke="#410F9E" stroke-width="2" stroke-linecap="round" stroke-linejoin="round"/>
<path d="M17.8804 17.8801L22.6004 22.6001" stroke="#453888" stroke-width="2" stroke-linecap="round" stroke-linejoin="round"/>
<path d="M17.8804 17.8801L22.6004 22.6001" stroke="#5946D7" stroke-width="2" stroke-linecap="round" stroke-linejoin="round"/>
<path d="M9.40039 9.40015L14.1204 14.1201" stroke="#2E1066" stroke-width="2" stroke-linecap="round" stroke-linejoin="round"/>
<path d="M9.40039 9.40015L14.1204 14.1201" stroke="#410F9E" stroke-width="2" stroke-linecap="round" stroke-linejoin="round"/>
<path d="M9.40039 9.40015L14.1204 14.1201" stroke="#453888" stroke-width="2" stroke-linecap="round" stroke-linejoin="round"/>
<path d="M9.40039 9.40015L14.1204 14.1201" stroke="#5946D7" stroke-width="2" stroke-linecap="round" stroke-linejoin="round"/>
<path fill-rule="evenodd" clip-rule="evenodd" d="M17.8858 14.1145C18.9272 15.1559 18.9272 16.8444 17.8858 17.8858C16.8444 18.9272 15.1559 18.9272 14.1145 17.8858C13.0731 16.8444 13.0731 15.1559 14.1145 14.1145C15.1559 13.0731 16.8444 13.0731 17.8858 14.1145Z" fill="white"/>
<path d="M17.8858 14.1145C18.9272 15.1559 18.9272 16.8444 17.8858 17.8858C16.8444 18.9272 15.1559 18.9272 14.1145 17.8858C13.0731 16.8444 13.0731 15.1559 14.1145 14.1145C15.1559 13.0731 16.8444 13.0731 17.8858 14.1145" stroke="#2E1066" stroke-width="2" stroke-linecap="round" stroke-linejoin="round"/>
<path d="M17.8858 14.1145C18.9272 15.1559 18.9272 16.8444 17.8858 17.8858C16.8444 18.9272 15.1559 18.9272 14.1145 17.8858C13.0731 16.8444 13.0731 15.1559 14.1145 14.1145C15.1559 13.0731 16.8444 13.0731 17.8858 14.1145" stroke="#410F9E" stroke-width="2" stroke-linecap="round" stroke-linejoin="round"/>
<path d="M17.8858 14.1145C18.9272 15.1559 18.9272 16.8444 17.8858 17.8858C16.8444 18.9272 15.1559 18.9272 14.1145 17.8858C13.0731 16.8444 13.0731 15.1559 14.1145 14.1145C15.1559 13.0731 16.8444 13.0731 17.8858 14.1145" stroke="#453888" stroke-width="2" stroke-linecap="round" stroke-linejoin="round"/>
<path d="M17.8858 14.1145C18.9272 15.1559 18.9272 16.8444 17.8858 17.8858C16.8444 18.9272 15.1559 18.9272 14.1145 17.8858C13.0731 16.8444 13.0731 15.1559 14.1145 14.1145C15.1559 13.0731 16.8444 13.0731 17.8858 14.1145" stroke="#5946D7" stroke-width="2" stroke-linecap="round" stroke-linejoin="round"/>
</g>
<defs>
<clipPath id="clip0_1_5390">
<rect width="32" height="32" fill="white"/>
</clipPath>
</defs>
</svg>
