<svg width="32" height="32" viewBox="0 0 32 32" fill="none" xmlns="http://www.w3.org/2000/svg">
    <path fill-rule="evenodd" clip-rule="evenodd" d="M29.2947 15.9612C29.2947 8.6185 23.3427 2.6665 16 2.6665V7.98384C20.4053 7.98384 23.9773 11.5545 23.9773 15.9612H29.2947Z" fill="#5946D7" fill-opacity="0.1"/>
    <path fill-rule="evenodd" clip-rule="evenodd" d="M29.2947 15.9612C29.2947 8.6185 23.3427 2.6665 16 2.6665V7.98384C20.4053 7.98384 23.9773 11.5545 23.9773 15.9612H29.2947Z" stroke="#2E1066" stroke-width="2" stroke-linecap="round" stroke-linejoin="round"/>
    <path fill-rule="evenodd" clip-rule="evenodd" d="M29.2947 15.9612C29.2947 8.6185 23.3427 2.6665 16 2.6665V7.98384C20.4053 7.98384 23.9773 11.5545 23.9773 15.9612H29.2947Z" stroke="#410F9E" stroke-width="2" stroke-linecap="round" stroke-linejoin="round"/>
    <path fill-rule="evenodd" clip-rule="evenodd" d="M29.2947 15.9612C29.2947 8.6185 23.3427 2.6665 16 2.6665V7.98384C20.4053 7.98384 23.9773 11.5545 23.9773 15.9612H29.2947Z" stroke="#453888" stroke-width="2" stroke-linecap="round" stroke-linejoin="round"/>
    <path fill-rule="evenodd" clip-rule="evenodd" d="M29.2947 15.9612C29.2947 8.6185 23.3427 2.6665 16 2.6665V7.98384C20.4053 7.98384 23.9773 11.5545 23.9773 15.9612H29.2947Z" stroke="#5946D7" stroke-width="2" stroke-linecap="round" stroke-linejoin="round"/>
    <path d="M26.5614 15.9612V16.6999C26.5614 22.9412 21.5028 27.9999 15.2614 27.9999C9.02009 27.9999 3.96143 22.9412 3.96143 16.6999C3.96143 10.4586 9.02009 5.3999 15.2614 5.3999H16.0001" stroke="#2E1066" stroke-width="2" stroke-linecap="round" stroke-linejoin="round"/>
    <path d="M26.5614 15.9612V16.6999C26.5614 22.9412 21.5028 27.9999 15.2614 27.9999C9.02009 27.9999 3.96143 22.9412 3.96143 16.6999C3.96143 10.4586 9.02009 5.3999 15.2614 5.3999H16.0001" stroke="#410F9E" stroke-width="2" stroke-linecap="round" stroke-linejoin="round"/>
    <path d="M26.5614 15.9612V16.6999C26.5614 22.9412 21.5028 27.9999 15.2614 27.9999C9.02009 27.9999 3.96143 22.9412 3.96143 16.6999C3.96143 10.4586 9.02009 5.3999 15.2614 5.3999H16.0001" stroke="#453888" stroke-width="2" stroke-linecap="round" stroke-linejoin="round"/>
    <path d="M26.5614 15.9612V16.6999C26.5614 22.9412 21.5028 27.9999 15.2614 27.9999C9.02009 27.9999 3.96143 22.9412 3.96143 16.6999C3.96143 10.4586 9.02009 5.3999 15.2614 5.3999H16.0001" stroke="#5946D7" stroke-width="2" stroke-linecap="round" stroke-linejoin="round"/>
    <path fill-rule="evenodd" clip-rule="evenodd" d="M18.2375 13.7236C19.8814 15.3675 19.8814 18.0327 18.2375 19.6765C16.5937 21.3204 13.9285 21.3204 12.2846 19.6765C10.6408 18.0327 10.6408 15.3675 12.2846 13.7236C13.9285 12.0798 16.5937 12.0798 18.2375 13.7236Z" fill="#5946D7" fill-opacity="0.1"/>
    <path d="M18.2375 13.7236C19.8814 15.3675 19.8814 18.0327 18.2375 19.6765C16.5937 21.3204 13.9285 21.3204 12.2846 19.6765C10.6408 18.0327 10.6408 15.3675 12.2846 13.7236C13.9285 12.0798 16.5937 12.0798 18.2375 13.7236" stroke="#2E1066" stroke-width="2" stroke-linecap="round" stroke-linejoin="round"/>
    <path d="M18.2375 13.7236C19.8814 15.3675 19.8814 18.0327 18.2375 19.6765C16.5937 21.3204 13.9285 21.3204 12.2846 19.6765C10.6408 18.0327 10.6408 15.3675 12.2846 13.7236C13.9285 12.0798 16.5937 12.0798 18.2375 13.7236" stroke="#410F9E" stroke-width="2" stroke-linecap="round" stroke-linejoin="round"/>
    <path d="M18.2375 13.7236C19.8814 15.3675 19.8814 18.0327 18.2375 19.6765C16.5937 21.3204 13.9285 21.3204 12.2846 19.6765C10.6408 18.0327 10.6408 15.3675 12.2846 13.7236C13.9285 12.0798 16.5937 12.0798 18.2375 13.7236" stroke="#453888" stroke-width="2" stroke-linecap="round" stroke-linejoin="round"/>
    <path d="M18.2375 13.7236C19.8814 15.3675 19.8814 18.0327 18.2375 19.6765C16.5937 21.3204 13.9285 21.3204 12.2846 19.6765C10.6408 18.0327 10.6408 15.3675 12.2846 13.7236C13.9285 12.0798 16.5937 12.0798 18.2375 13.7236" stroke="#5946D7" stroke-width="2" stroke-linecap="round" stroke-linejoin="round"/>
    </svg>
    