<svg width="32" height="32" viewBox="0 0 32 32" fill="none" xmlns="http://www.w3.org/2000/svg">
    <path fill-rule="evenodd" clip-rule="evenodd" d="M18.7318 21.4357C17.8855 21.5768 17.02 21.3385 16.3653 20.784C15.7106 20.2295 15.333 19.4151 15.333 18.5571V13.443C15.333 12.585 15.7106 11.7706 16.3653 11.2161C17.02 10.6616 17.8855 10.4233 18.7318 10.5645C21.3889 11.0072 23.3365 13.3062 23.3363 16.0001C23.3365 18.6939 21.3889 20.9929 18.7318 21.4357Z" fill="#5946D7" fill-opacity="0.1"/>
    <path fill-rule="evenodd" clip-rule="evenodd" d="M18.7318 21.4357C17.8855 21.5768 17.02 21.3385 16.3653 20.784C15.7106 20.2295 15.333 19.4151 15.333 18.5571V13.443C15.333 12.585 15.7106 11.7706 16.3653 11.2161C17.02 10.6616 17.8855 10.4233 18.7318 10.5645C21.3889 11.0072 23.3365 13.3062 23.3363 16.0001C23.3365 18.6939 21.3889 20.9929 18.7318 21.4357Z" stroke="#2E1066" stroke-width="2" stroke-linecap="round" stroke-linejoin="round"/>
    <path fill-rule="evenodd" clip-rule="evenodd" d="M18.7318 21.4357C17.8855 21.5768 17.02 21.3385 16.3653 20.784C15.7106 20.2295 15.333 19.4151 15.333 18.5571V13.443C15.333 12.585 15.7106 11.7706 16.3653 11.2161C17.02 10.6616 17.8855 10.4233 18.7318 10.5645C21.3889 11.0072 23.3365 13.3062 23.3363 16.0001C23.3365 18.6939 21.3889 20.9929 18.7318 21.4357Z" stroke="#410F9E" stroke-width="2" stroke-linecap="round" stroke-linejoin="round"/>
    <path fill-rule="evenodd" clip-rule="evenodd" d="M18.7318 21.4357C17.8855 21.5768 17.02 21.3385 16.3653 20.784C15.7106 20.2295 15.333 19.4151 15.333 18.5571V13.443C15.333 12.585 15.7106 11.7706 16.3653 11.2161C17.02 10.6616 17.8855 10.4233 18.7318 10.5645C21.3889 11.0072 23.3365 13.3062 23.3363 16.0001C23.3365 18.6939 21.3889 20.9929 18.7318 21.4357Z" stroke="#453888" stroke-width="2" stroke-linecap="round" stroke-linejoin="round"/>
    <path fill-rule="evenodd" clip-rule="evenodd" d="M18.7318 21.4357C17.8855 21.5768 17.02 21.3385 16.3653 20.784C15.7106 20.2295 15.333 19.4151 15.333 18.5571V13.443C15.333 12.585 15.7106 11.7706 16.3653 11.2161C17.02 10.6616 17.8855 10.4233 18.7318 10.5645C21.3889 11.0072 23.3365 13.3062 23.3363 16.0001C23.3365 18.6939 21.3889 20.9929 18.7318 21.4357Z" stroke="#5946D7" stroke-width="2" stroke-linecap="round" stroke-linejoin="round"/>
    <path d="M9.33057 13.3322L11.9983 12.6653" stroke="#2E1066" stroke-width="2" stroke-linecap="round" stroke-linejoin="round"/>
    <path d="M9.33057 13.3322L11.9983 12.6653" stroke="#410F9E" stroke-width="2" stroke-linecap="round" stroke-linejoin="round"/>
    <path d="M9.33057 13.3322L11.9983 12.6653" stroke="#453888" stroke-width="2" stroke-linecap="round" stroke-linejoin="round"/>
    <path d="M9.33057 13.3322L11.9983 12.6653" stroke="#5946D7" stroke-width="2" stroke-linecap="round" stroke-linejoin="round"/>
    <path d="M9.33057 16.6669L11.9983 16" stroke="#2E1066" stroke-width="2" stroke-linecap="round" stroke-linejoin="round"/>
    <path d="M9.33057 16.6669L11.9983 16" stroke="#410F9E" stroke-width="2" stroke-linecap="round" stroke-linejoin="round"/>
    <path d="M9.33057 16.6669L11.9983 16" stroke="#453888" stroke-width="2" stroke-linecap="round" stroke-linejoin="round"/>
    <path d="M9.33057 16.6669L11.9983 16" stroke="#5946D7" stroke-width="2" stroke-linecap="round" stroke-linejoin="round"/>
    <path fill-rule="evenodd" clip-rule="evenodd" d="M15.9996 28.0051V28.0051C9.36945 28.0051 3.99463 22.6303 3.99463 16.0001V16.0001C3.99463 9.36994 9.36945 3.99512 15.9996 3.99512V3.99512C22.6298 3.99512 28.0046 9.36994 28.0046 16.0001V16.0001C28.0046 22.6303 22.6298 28.0051 15.9996 28.0051V28.0051Z" stroke="#2E1066" stroke-width="2" stroke-linecap="round" stroke-linejoin="round"/>
    <path fill-rule="evenodd" clip-rule="evenodd" d="M15.9996 28.0051V28.0051C9.36945 28.0051 3.99463 22.6303 3.99463 16.0001V16.0001C3.99463 9.36994 9.36945 3.99512 15.9996 3.99512V3.99512C22.6298 3.99512 28.0046 9.36994 28.0046 16.0001V16.0001C28.0046 22.6303 22.6298 28.0051 15.9996 28.0051V28.0051Z" stroke="#410F9E" stroke-width="2" stroke-linecap="round" stroke-linejoin="round"/>
    <path fill-rule="evenodd" clip-rule="evenodd" d="M15.9996 28.0051V28.0051C9.36945 28.0051 3.99463 22.6303 3.99463 16.0001V16.0001C3.99463 9.36994 9.36945 3.99512 15.9996 3.99512V3.99512C22.6298 3.99512 28.0046 9.36994 28.0046 16.0001V16.0001C28.0046 22.6303 22.6298 28.0051 15.9996 28.0051V28.0051Z" stroke="#453888" stroke-width="2" stroke-linecap="round" stroke-linejoin="round"/>
    <path fill-rule="evenodd" clip-rule="evenodd" d="M15.9996 28.0051V28.0051C9.36945 28.0051 3.99463 22.6303 3.99463 16.0001V16.0001C3.99463 9.36994 9.36945 3.99512 15.9996 3.99512V3.99512C22.6298 3.99512 28.0046 9.36994 28.0046 16.0001V16.0001C28.0046 22.6303 22.6298 28.0051 15.9996 28.0051V28.0051Z" stroke="#5946D7" stroke-width="2" stroke-linecap="round" stroke-linejoin="round"/>
    <path d="M9.33057 20.0016L11.9983 19.3347" stroke="#2E1066" stroke-width="2" stroke-linecap="round" stroke-linejoin="round"/>
    <path d="M9.33057 20.0016L11.9983 19.3347" stroke="#410F9E" stroke-width="2" stroke-linecap="round" stroke-linejoin="round"/>
    <path d="M9.33057 20.0016L11.9983 19.3347" stroke="#453888" stroke-width="2" stroke-linecap="round" stroke-linejoin="round"/>
    <path d="M9.33057 20.0016L11.9983 19.3347" stroke="#5946D7" stroke-width="2" stroke-linecap="round" stroke-linejoin="round"/>
    </svg>
    