<svg width="34" height="34" viewBox="0 0 34 34" fill="none" xmlns="http://www.w3.org/2000/svg">
    <path d="M3 27V10V9L15 2.5L13 17H8.5V27H3Z" fill="#5946D7" fill-opacity="0.1"/>
    <path d="M12.1973 9.91371H17.5517" stroke="#2E1066" stroke-width="2" stroke-linecap="round" stroke-linejoin="round"/>
    <path d="M12.1973 9.91371H17.5517" stroke="#410F9E" stroke-width="2" stroke-linecap="round" stroke-linejoin="round"/>
    <path d="M12.1973 9.91371H17.5517" stroke="#453888" stroke-width="2" stroke-linecap="round" stroke-linejoin="round"/>
    <path d="M12.1973 9.91371H17.5517" stroke="#5946D7" stroke-width="2" stroke-linecap="round" stroke-linejoin="round"/>
    <path d="M12.7488 17H8.49707V26.9208" stroke="#2E1066" stroke-width="2" stroke-linecap="round" stroke-linejoin="round"/>
    <path d="M12.7488 17H8.49707V26.9208" stroke="#410F9E" stroke-width="2" stroke-linecap="round" stroke-linejoin="round"/>
    <path d="M12.7488 17H8.49707V26.9208" stroke="#453888" stroke-width="2" stroke-linecap="round" stroke-linejoin="round"/>
    <path d="M12.7488 17H8.49707V26.9208" stroke="#5946D7" stroke-width="2" stroke-linecap="round" stroke-linejoin="round"/>
    <path d="M8.49666 26.9207H2.82764V10.7101C2.82764 9.73779 3.35499 8.84196 4.20521 8.37022L13.5747 3.16464C14.3834 2.7153 15.3667 2.7153 16.1754 3.16464L25.5448 8.37022C26.3943 8.84256 26.921 9.73817 26.921 10.7101V12.7481" stroke="#2E1066" stroke-width="2" stroke-linecap="round" stroke-linejoin="round"/>
    <path d="M8.49666 26.9207H2.82764V10.7101C2.82764 9.73779 3.35499 8.84196 4.20521 8.37022L13.5747 3.16464C14.3834 2.7153 15.3667 2.7153 16.1754 3.16464L25.5448 8.37022C26.3943 8.84256 26.921 9.73817 26.921 10.7101V12.7481" stroke="#410F9E" stroke-width="2" stroke-linecap="round" stroke-linejoin="round"/>
    <path d="M8.49666 26.9207H2.82764V10.7101C2.82764 9.73779 3.35499 8.84196 4.20521 8.37022L13.5747 3.16464C14.3834 2.7153 15.3667 2.7153 16.1754 3.16464L25.5448 8.37022C26.3943 8.84256 26.921 9.73817 26.921 10.7101V12.7481" stroke="#453888" stroke-width="2" stroke-linecap="round" stroke-linejoin="round"/>
    <path d="M8.49666 26.9207H2.82764V10.7101C2.82764 9.73779 3.35499 8.84196 4.20521 8.37022L13.5747 3.16464C14.3834 2.7153 15.3667 2.7153 16.1754 3.16464L25.5448 8.37022C26.3943 8.84256 26.921 9.73817 26.921 10.7101V12.7481" stroke="#5946D7" stroke-width="2" stroke-linecap="round" stroke-linejoin="round"/>
    <path fill-rule="evenodd" clip-rule="evenodd" d="M31.1731 25.22C31.1731 23.6546 29.904 22.3855 28.3386 22.3855H17.0005C15.4351 22.3855 14.166 23.6546 14.166 25.22" fill="#5946D7" fill-opacity="0.1"/>
    <path d="M31.1731 25.22C31.1731 23.6546 29.904 22.3855 28.3386 22.3855H17.0005C15.4351 22.3855 14.166 23.6546 14.166 25.22" stroke="#2E1066" stroke-width="2" stroke-linecap="round" stroke-linejoin="round"/>
    <path d="M31.1731 25.22C31.1731 23.6546 29.904 22.3855 28.3386 22.3855H17.0005C15.4351 22.3855 14.166 23.6546 14.166 25.22" stroke="#410F9E" stroke-width="2" stroke-linecap="round" stroke-linejoin="round"/>
    <path d="M31.1731 25.22C31.1731 23.6546 29.904 22.3855 28.3386 22.3855H17.0005C15.4351 22.3855 14.166 23.6546 14.166 25.22" stroke="#453888" stroke-width="2" stroke-linecap="round" stroke-linejoin="round"/>
    <path d="M31.1731 25.22C31.1731 23.6546 29.904 22.3855 28.3386 22.3855H17.0005C15.4351 22.3855 14.166 23.6546 14.166 25.22" stroke="#5946D7" stroke-width="2" stroke-linecap="round" stroke-linejoin="round"/>
    <path fill-rule="evenodd" clip-rule="evenodd" d="M14.166 25.2202V29.7554C14.166 30.5382 14.8005 31.1727 15.5833 31.1727H16.9864C17.7691 31.1727 18.4036 30.5382 18.4036 29.7554V28.8186H26.9355V29.7554C26.9355 30.5382 27.57 31.1727 28.3528 31.1727H29.7558C30.5386 31.1727 31.1731 30.5382 31.1731 29.7554V25.2202" fill="#5946D7" fill-opacity="0.1"/>
    <path d="M14.166 25.2202V29.7554C14.166 30.5382 14.8005 31.1727 15.5833 31.1727H16.9864C17.7691 31.1727 18.4036 30.5382 18.4036 29.7554V28.8186H26.9355V29.7554C26.9355 30.5382 27.57 31.1727 28.3528 31.1727H29.7558C30.5386 31.1727 31.1731 30.5382 31.1731 29.7554V25.2202" stroke="#2E1066" stroke-width="2" stroke-linecap="round" stroke-linejoin="round"/>
    <path d="M14.166 25.2202V29.7554C14.166 30.5382 14.8005 31.1727 15.5833 31.1727H16.9864C17.7691 31.1727 18.4036 30.5382 18.4036 29.7554V28.8186H26.9355V29.7554C26.9355 30.5382 27.57 31.1727 28.3528 31.1727H29.7558C30.5386 31.1727 31.1731 30.5382 31.1731 29.7554V25.2202" stroke="#410F9E" stroke-width="2" stroke-linecap="round" stroke-linejoin="round"/>
    <path d="M14.166 25.2202V29.7554C14.166 30.5382 14.8005 31.1727 15.5833 31.1727H16.9864C17.7691 31.1727 18.4036 30.5382 18.4036 29.7554V28.8186H26.9355V29.7554C26.9355 30.5382 27.57 31.1727 28.3528 31.1727H29.7558C30.5386 31.1727 31.1731 30.5382 31.1731 29.7554V25.2202" stroke="#453888" stroke-width="2" stroke-linecap="round" stroke-linejoin="round"/>
    <path d="M14.166 25.2202V29.7554C14.166 30.5382 14.8005 31.1727 15.5833 31.1727H16.9864C17.7691 31.1727 18.4036 30.5382 18.4036 29.7554V28.8186H26.9355V29.7554C26.9355 30.5382 27.57 31.1727 28.3528 31.1727H29.7558C30.5386 31.1727 31.1731 30.5382 31.1731 29.7554V25.2202" stroke="#5946D7" stroke-width="2" stroke-linecap="round" stroke-linejoin="round"/>
    <path d="M19.4621 25.6454H17.3433" stroke="#2E1066" stroke-width="2" stroke-linecap="round" stroke-linejoin="round"/>
    <path d="M19.4621 25.6454H17.3433" stroke="#410F9E" stroke-width="2" stroke-linecap="round" stroke-linejoin="round"/>
    <path d="M19.4621 25.6454H17.3433" stroke="#453888" stroke-width="2" stroke-linecap="round" stroke-linejoin="round"/>
    <path d="M19.4621 25.6454H17.3433" stroke="#5946D7" stroke-width="2" stroke-linecap="round" stroke-linejoin="round"/>
    <path d="M27.9953 25.6454H25.8765" stroke="#2E1066" stroke-width="2" stroke-linecap="round" stroke-linejoin="round"/>
    <path d="M27.9953 25.6454H25.8765" stroke="#410F9E" stroke-width="2" stroke-linecap="round" stroke-linejoin="round"/>
    <path d="M27.9953 25.6454H25.8765" stroke="#453888" stroke-width="2" stroke-linecap="round" stroke-linejoin="round"/>
    <path d="M27.9953 25.6454H25.8765" stroke="#5946D7" stroke-width="2" stroke-linecap="round" stroke-linejoin="round"/>
    <path d="M29.0537 22.2963L31.1725 21.2376" stroke="#2E1066" stroke-width="2" stroke-linecap="round" stroke-linejoin="round"/>
    <path d="M29.0537 22.2963L31.1725 21.2376" stroke="#410F9E" stroke-width="2" stroke-linecap="round" stroke-linejoin="round"/>
    <path d="M29.0537 22.2963L31.1725 21.2376" stroke="#453888" stroke-width="2" stroke-linecap="round" stroke-linejoin="round"/>
    <path d="M29.0537 22.2963L31.1725 21.2376" stroke="#5946D7" stroke-width="2" stroke-linecap="round" stroke-linejoin="round"/>
    <path d="M16.2919 22.2963L14.166 21.2376" stroke="#2E1066" stroke-width="2" stroke-linecap="round" stroke-linejoin="round"/>
    <path d="M16.2919 22.2963L14.166 21.2376" stroke="#410F9E" stroke-width="2" stroke-linecap="round" stroke-linejoin="round"/>
    <path d="M16.2919 22.2963L14.166 21.2376" stroke="#453888" stroke-width="2" stroke-linecap="round" stroke-linejoin="round"/>
    <path d="M16.2919 22.2963L14.166 21.2376" stroke="#5946D7" stroke-width="2" stroke-linecap="round" stroke-linejoin="round"/>
    <path d="M19.2228 17C18.2391 17.0025 17.3855 17.6796 17.1593 18.6369L16.2607 22.4777L17.1593 18.6369C17.3855 17.6796 18.2391 17.0025 19.2228 17H26.1163C27.1001 17.0025 27.9536 17.6796 28.1799 18.6369L29.0784 22.4777" stroke="#2E1066" stroke-width="2" stroke-linecap="round" stroke-linejoin="round"/>
    <path d="M19.2228 17C18.2391 17.0025 17.3855 17.6796 17.1593 18.6369L16.2607 22.4777L17.1593 18.6369C17.3855 17.6796 18.2391 17.0025 19.2228 17H26.1163C27.1001 17.0025 27.9536 17.6796 28.1799 18.6369L29.0784 22.4777" stroke="#410F9E" stroke-width="2" stroke-linecap="round" stroke-linejoin="round"/>
    <path d="M19.2228 17C18.2391 17.0025 17.3855 17.6796 17.1593 18.6369L16.2607 22.4777L17.1593 18.6369C17.3855 17.6796 18.2391 17.0025 19.2228 17H26.1163C27.1001 17.0025 27.9536 17.6796 28.1799 18.6369L29.0784 22.4777" stroke="#453888" stroke-width="2" stroke-linecap="round" stroke-linejoin="round"/>
    <path d="M19.2228 17C18.2391 17.0025 17.3855 17.6796 17.1593 18.6369L16.2607 22.4777L17.1593 18.6369C17.3855 17.6796 18.2391 17.0025 19.2228 17H26.1163C27.1001 17.0025 27.9536 17.6796 28.1799 18.6369L29.0784 22.4777" stroke="#5946D7" stroke-width="2" stroke-linecap="round" stroke-linejoin="round"/>
    </svg>
    