<svg width="32" height="32" viewBox="0 0 32 32" fill="none" xmlns="http://www.w3.org/2000/svg">
    <path d="M2.5 24.5L3 10V9.5H9L11.5 7L16 6.5V26.5H4L2.5 24.5Z" fill="#5946D7" fill-opacity="0.1"/>
    <path d="M22.6665 9.3335V6.66683C22.6665 5.93083 23.2638 5.3335 23.9998 5.3335H26.6665C27.4025 5.3335 27.9998 5.93083 27.9998 6.66683V9.3335" stroke="#2E1066" stroke-width="2" stroke-linecap="round" stroke-linejoin="round"/>
    <path d="M22.6665 9.3335V6.66683C22.6665 5.93083 23.2638 5.3335 23.9998 5.3335H26.6665C27.4025 5.3335 27.9998 5.93083 27.9998 6.66683V9.3335" stroke="#410F9E" stroke-width="2" stroke-linecap="round" stroke-linejoin="round"/>
    <path d="M22.6665 9.3335V6.66683C22.6665 5.93083 23.2638 5.3335 23.9998 5.3335H26.6665C27.4025 5.3335 27.9998 5.93083 27.9998 6.66683V9.3335" stroke="#453888" stroke-width="2" stroke-linecap="round" stroke-linejoin="round"/>
    <path d="M22.6665 9.3335V6.66683C22.6665 5.93083 23.2638 5.3335 23.9998 5.3335H26.6665C27.4025 5.3335 27.9998 5.93083 27.9998 6.66683V9.3335" stroke="#5946D7" stroke-width="2" stroke-linecap="round" stroke-linejoin="round"/>
    <path d="M22.6667 15.3335V19.3335" stroke="#2E1066" stroke-width="2" stroke-linecap="round" stroke-linejoin="round"/>
    <path d="M22.6667 15.3335V19.3335" stroke="#410F9E" stroke-width="2" stroke-linecap="round" stroke-linejoin="round"/>
    <path d="M22.6667 15.3335V19.3335" stroke="#453888" stroke-width="2" stroke-linecap="round" stroke-linejoin="round"/>
    <path d="M22.6667 15.3335V19.3335" stroke="#5946D7" stroke-width="2" stroke-linecap="round" stroke-linejoin="round"/>
    <path d="M24.6665 17.3337H20.6665" stroke="#2E1066" stroke-width="2" stroke-linecap="round" stroke-linejoin="round"/>
    <path d="M24.6665 17.3337H20.6665" stroke="#410F9E" stroke-width="2" stroke-linecap="round" stroke-linejoin="round"/>
    <path d="M24.6665 17.3337H20.6665" stroke="#453888" stroke-width="2" stroke-linecap="round" stroke-linejoin="round"/>
    <path d="M24.6665 17.3337H20.6665" stroke="#5946D7" stroke-width="2" stroke-linecap="round" stroke-linejoin="round"/>
    <path d="M11.333 17.3337H7.33301" stroke="#2E1066" stroke-width="2" stroke-linecap="round" stroke-linejoin="round"/>
    <path d="M11.333 17.3337H7.33301" stroke="#410F9E" stroke-width="2" stroke-linecap="round" stroke-linejoin="round"/>
    <path d="M11.333 17.3337H7.33301" stroke="#453888" stroke-width="2" stroke-linecap="round" stroke-linejoin="round"/>
    <path d="M11.333 17.3337H7.33301" stroke="#5946D7" stroke-width="2" stroke-linecap="round" stroke-linejoin="round"/>
    <path d="M4 9.3335V6.66683C4 5.93083 4.59733 5.3335 5.33333 5.3335H8C8.736 5.3335 9.33333 5.93083 9.33333 6.66683V9.3335" stroke="#2E1066" stroke-width="2" stroke-linecap="round" stroke-linejoin="round"/>
    <path d="M4 9.3335V6.66683C4 5.93083 4.59733 5.3335 5.33333 5.3335H8C8.736 5.3335 9.33333 5.93083 9.33333 6.66683V9.3335" stroke="#410F9E" stroke-width="2" stroke-linecap="round" stroke-linejoin="round"/>
    <path d="M4 9.3335V6.66683C4 5.93083 4.59733 5.3335 5.33333 5.3335H8C8.736 5.3335 9.33333 5.93083 9.33333 6.66683V9.3335" stroke="#453888" stroke-width="2" stroke-linecap="round" stroke-linejoin="round"/>
    <path d="M4 9.3335V6.66683C4 5.93083 4.59733 5.3335 5.33333 5.3335H8C8.736 5.3335 9.33333 5.93083 9.33333 6.66683V9.3335" stroke="#5946D7" stroke-width="2" stroke-linecap="round" stroke-linejoin="round"/>
    <path fill-rule="evenodd" clip-rule="evenodd" d="M22.6665 9.33366H27.9998C28.7358 9.33366 29.3332 9.93099 29.3332 10.667V24.0003C29.3332 25.4737 28.1398 26.667 26.6665 26.667H5.33317C3.85984 26.667 2.6665 25.4737 2.6665 24.0003V10.667C2.6665 9.93099 3.26384 9.33366 3.99984 9.33366H9.33317L11.6092 7.05766C11.8598 6.80699 12.1985 6.66699 12.5518 6.66699H19.4478C19.8012 6.66699 20.1412 6.80699 20.3905 7.05766L22.6665 9.33366V9.33366Z" stroke="#2E1066" stroke-width="2" stroke-linecap="round" stroke-linejoin="round"/>
    <path fill-rule="evenodd" clip-rule="evenodd" d="M22.6665 9.33366H27.9998C28.7358 9.33366 29.3332 9.93099 29.3332 10.667V24.0003C29.3332 25.4737 28.1398 26.667 26.6665 26.667H5.33317C3.85984 26.667 2.6665 25.4737 2.6665 24.0003V10.667C2.6665 9.93099 3.26384 9.33366 3.99984 9.33366H9.33317L11.6092 7.05766C11.8598 6.80699 12.1985 6.66699 12.5518 6.66699H19.4478C19.8012 6.66699 20.1412 6.80699 20.3905 7.05766L22.6665 9.33366V9.33366Z" stroke="#410F9E" stroke-width="2" stroke-linecap="round" stroke-linejoin="round"/>
    <path fill-rule="evenodd" clip-rule="evenodd" d="M22.6665 9.33366H27.9998C28.7358 9.33366 29.3332 9.93099 29.3332 10.667V24.0003C29.3332 25.4737 28.1398 26.667 26.6665 26.667H5.33317C3.85984 26.667 2.6665 25.4737 2.6665 24.0003V10.667C2.6665 9.93099 3.26384 9.33366 3.99984 9.33366H9.33317L11.6092 7.05766C11.8598 6.80699 12.1985 6.66699 12.5518 6.66699H19.4478C19.8012 6.66699 20.1412 6.80699 20.3905 7.05766L22.6665 9.33366V9.33366Z" stroke="#453888" stroke-width="2" stroke-linecap="round" stroke-linejoin="round"/>
    <path fill-rule="evenodd" clip-rule="evenodd" d="M22.6665 9.33366H27.9998C28.7358 9.33366 29.3332 9.93099 29.3332 10.667V24.0003C29.3332 25.4737 28.1398 26.667 26.6665 26.667H5.33317C3.85984 26.667 2.6665 25.4737 2.6665 24.0003V10.667C2.6665 9.93099 3.26384 9.33366 3.99984 9.33366H9.33317L11.6092 7.05766C11.8598 6.80699 12.1985 6.66699 12.5518 6.66699H19.4478C19.8012 6.66699 20.1412 6.80699 20.3905 7.05766L22.6665 9.33366V9.33366Z" stroke="#5946D7" stroke-width="2" stroke-linecap="round" stroke-linejoin="round"/>
    </svg>
    