<svg width="119" height="24" viewBox="0 0 119 24" fill="none" xmlns="http://www.w3.org/2000/svg">
    <path
        d="M36.8035 7.69556C35.5662 7.69556 34.4616 8.18145 33.4899 9.15321C32.5241 10.125 32.0413 11.2416 32.0413 12.5031C32.0413 13.5654 32.3944 14.4557 33.1006 15.1739C33.8128 15.8862 34.7272 16.2423 35.8438 16.2423C37.0691 16.2423 38.1676 15.7685 39.1394 14.8208C40.1172 13.8672 40.6061 12.7355 40.6061 11.4257C40.6061 10.3634 40.247 9.47613 39.5287 8.7639C38.8104 8.05168 37.9021 7.69556 36.8035 7.69556ZM29.126 12.6661C29.126 10.7105 29.9167 8.98119 31.4981 7.47828C33.0855 5.96932 34.9173 5.21484 36.9937 5.21484C38.907 5.21484 40.4733 5.80635 41.6925 6.98937C42.9118 8.16636 43.5214 9.59383 43.5214 11.2718C43.5214 12.5816 43.1562 13.8159 42.4259 14.9748C41.6956 16.1276 40.7268 17.045 39.5197 17.7271C38.3185 18.4091 37.042 18.7502 35.6899 18.7502C33.7766 18.7502 32.2042 18.1617 30.9729 16.9847C29.7416 15.8017 29.126 14.3621 29.126 12.6661Z"
        fill="#2E1066" />
    <path
        d="M36.8035 7.69556C35.5662 7.69556 34.4616 8.18145 33.4899 9.15321C32.5241 10.125 32.0413 11.2416 32.0413 12.5031C32.0413 13.5654 32.3944 14.4557 33.1006 15.1739C33.8128 15.8862 34.7272 16.2423 35.8438 16.2423C37.0691 16.2423 38.1676 15.7685 39.1394 14.8208C40.1172 13.8672 40.6061 12.7355 40.6061 11.4257C40.6061 10.3634 40.247 9.47613 39.5287 8.7639C38.8104 8.05168 37.9021 7.69556 36.8035 7.69556ZM29.126 12.6661C29.126 10.7105 29.9167 8.98119 31.4981 7.47828C33.0855 5.96932 34.9173 5.21484 36.9937 5.21484C38.907 5.21484 40.4733 5.80635 41.6925 6.98937C42.9118 8.16636 43.5214 9.59383 43.5214 11.2718C43.5214 12.5816 43.1562 13.8159 42.4259 14.9748C41.6956 16.1276 40.7268 17.045 39.5197 17.7271C38.3185 18.4091 37.042 18.7502 35.6899 18.7502C33.7766 18.7502 32.2042 18.1617 30.9729 16.9847C29.7416 15.8017 29.126 14.3621 29.126 12.6661Z"
        fill="#410F9E" />
    <path
        d="M36.8035 7.69556C35.5662 7.69556 34.4616 8.18145 33.4899 9.15321C32.5241 10.125 32.0413 11.2416 32.0413 12.5031C32.0413 13.5654 32.3944 14.4557 33.1006 15.1739C33.8128 15.8862 34.7272 16.2423 35.8438 16.2423C37.0691 16.2423 38.1676 15.7685 39.1394 14.8208C40.1172 13.8672 40.6061 12.7355 40.6061 11.4257C40.6061 10.3634 40.247 9.47613 39.5287 8.7639C38.8104 8.05168 37.9021 7.69556 36.8035 7.69556ZM29.126 12.6661C29.126 10.7105 29.9167 8.98119 31.4981 7.47828C33.0855 5.96932 34.9173 5.21484 36.9937 5.21484C38.907 5.21484 40.4733 5.80635 41.6925 6.98937C42.9118 8.16636 43.5214 9.59383 43.5214 11.2718C43.5214 12.5816 43.1562 13.8159 42.4259 14.9748C41.6956 16.1276 40.7268 17.045 39.5197 17.7271C38.3185 18.4091 37.042 18.7502 35.6899 18.7502C33.7766 18.7502 32.2042 18.1617 30.9729 16.9847C29.7416 15.8017 29.126 14.3621 29.126 12.6661Z"
        fill="#453888" />
    <path
        d="M36.8035 7.69556C35.5662 7.69556 34.4616 8.18145 33.4899 9.15321C32.5241 10.125 32.0413 11.2416 32.0413 12.5031C32.0413 13.5654 32.3944 14.4557 33.1006 15.1739C33.8128 15.8862 34.7272 16.2423 35.8438 16.2423C37.0691 16.2423 38.1676 15.7685 39.1394 14.8208C40.1172 13.8672 40.6061 12.7355 40.6061 11.4257C40.6061 10.3634 40.247 9.47613 39.5287 8.7639C38.8104 8.05168 37.9021 7.69556 36.8035 7.69556ZM29.126 12.6661C29.126 10.7105 29.9167 8.98119 31.4981 7.47828C33.0855 5.96932 34.9173 5.21484 36.9937 5.21484C38.907 5.21484 40.4733 5.80635 41.6925 6.98937C42.9118 8.16636 43.5214 9.59383 43.5214 11.2718C43.5214 12.5816 43.1562 13.8159 42.4259 14.9748C41.6956 16.1276 40.7268 17.045 39.5197 17.7271C38.3185 18.4091 37.042 18.7502 35.6899 18.7502C33.7766 18.7502 32.2042 18.1617 30.9729 16.9847C29.7416 15.8017 29.126 14.3621 29.126 12.6661Z"
        fill="#5946D7" />
    <path
        d="M56.5222 5.48646H59.3017L56.5584 18.4695H54.2407L49.4965 10.2034L47.7491 18.4695H44.9696L47.7129 5.48646H50.0307L54.7839 13.7616L56.5222 5.48646Z"
        fill="#2E1066" />
    <path
        d="M56.5222 5.48646H59.3017L56.5584 18.4695H54.2407L49.4965 10.2034L47.7491 18.4695H44.9696L47.7129 5.48646H50.0307L54.7839 13.7616L56.5222 5.48646Z"
        fill="#410F9E" />
    <path
        d="M56.5222 5.48646H59.3017L56.5584 18.4695H54.2407L49.4965 10.2034L47.7491 18.4695H44.9696L47.7129 5.48646H50.0307L54.7839 13.7616L56.5222 5.48646Z"
        fill="#453888" />
    <path
        d="M56.5222 5.48646H59.3017L56.5584 18.4695H54.2407L49.4965 10.2034L47.7491 18.4695H44.9696L47.7129 5.48646H50.0307L54.7839 13.7616L56.5222 5.48646Z"
        fill="#5946D7" />
    <path
        d="M63.5656 15.9707H70.5189L69.9938 18.4695H60.261L63.0043 5.48646H72.556L72.0399 7.99434H65.2677L64.7154 10.5928H69.9938L69.4596 13.0916H64.1722L63.5656 15.9707Z"
        fill="#2E1066" />
    <path
        d="M63.5656 15.9707H70.5189L69.9938 18.4695H60.261L63.0043 5.48646H72.556L72.0399 7.99434H65.2677L64.7154 10.5928H69.9938L69.4596 13.0916H64.1722L63.5656 15.9707Z"
        fill="#410F9E" />
    <path
        d="M63.5656 15.9707H70.5189L69.9938 18.4695H60.261L63.0043 5.48646H72.556L72.0399 7.99434H65.2677L64.7154 10.5928H69.9938L69.4596 13.0916H64.1722L63.5656 15.9707Z"
        fill="#453888" />
    <path
        d="M63.5656 15.9707H70.5189L69.9938 18.4695H60.261L63.0043 5.48646H72.556L72.0399 7.99434H65.2677L64.7154 10.5928H69.9938L69.4596 13.0916H64.1722L63.5656 15.9707Z"
        fill="#5946D7" />
    <path
        d="M72.963 18.4695L75.7063 5.48646H81.1929C82.2914 5.48646 83.2149 5.85766 83.9633 6.60006C84.7178 7.34247 85.095 8.20861 85.095 9.19848C85.095 9.83828 84.9834 10.4298 84.76 10.973C84.5367 11.5102 84.2651 11.9327 83.9452 12.2405C83.6313 12.5484 83.3205 12.8079 83.0127 13.0192C82.7048 13.2304 82.4393 13.3723 82.2159 13.4447L81.8809 13.5533L83.6283 18.4695H80.7311L79.192 13.9245H76.7113L75.7425 18.4695H72.963ZM80.0883 11.4257C80.6557 11.4257 81.1567 11.2537 81.5912 10.9096C82.0318 10.5596 82.2522 10.0948 82.2522 9.51536C82.2522 9.09286 82.1254 8.73373 81.8719 8.43797C81.6184 8.14222 81.2834 7.99434 80.8669 7.99434H77.9697L77.2273 11.4257H80.0883Z"
        fill="#2E1066" />
    <path
        d="M72.963 18.4695L75.7063 5.48646H81.1929C82.2914 5.48646 83.2149 5.85766 83.9633 6.60006C84.7178 7.34247 85.095 8.20861 85.095 9.19848C85.095 9.83828 84.9834 10.4298 84.76 10.973C84.5367 11.5102 84.2651 11.9327 83.9452 12.2405C83.6313 12.5484 83.3205 12.8079 83.0127 13.0192C82.7048 13.2304 82.4393 13.3723 82.2159 13.4447L81.8809 13.5533L83.6283 18.4695H80.7311L79.192 13.9245H76.7113L75.7425 18.4695H72.963ZM80.0883 11.4257C80.6557 11.4257 81.1567 11.2537 81.5912 10.9096C82.0318 10.5596 82.2522 10.0948 82.2522 9.51536C82.2522 9.09286 82.1254 8.73373 81.8719 8.43797C81.6184 8.14222 81.2834 7.99434 80.8669 7.99434H77.9697L77.2273 11.4257H80.0883Z"
        fill="#410F9E" />
    <path
        d="M72.963 18.4695L75.7063 5.48646H81.1929C82.2914 5.48646 83.2149 5.85766 83.9633 6.60006C84.7178 7.34247 85.095 8.20861 85.095 9.19848C85.095 9.83828 84.9834 10.4298 84.76 10.973C84.5367 11.5102 84.2651 11.9327 83.9452 12.2405C83.6313 12.5484 83.3205 12.8079 83.0127 13.0192C82.7048 13.2304 82.4393 13.3723 82.2159 13.4447L81.8809 13.5533L83.6283 18.4695H80.7311L79.192 13.9245H76.7113L75.7425 18.4695H72.963ZM80.0883 11.4257C80.6557 11.4257 81.1567 11.2537 81.5912 10.9096C82.0318 10.5596 82.2522 10.0948 82.2522 9.51536C82.2522 9.09286 82.1254 8.73373 81.8719 8.43797C81.6184 8.14222 81.2834 7.99434 80.8669 7.99434H77.9697L77.2273 11.4257H80.0883Z"
        fill="#453888" />
    <path
        d="M72.963 18.4695L75.7063 5.48646H81.1929C82.2914 5.48646 83.2149 5.85766 83.9633 6.60006C84.7178 7.34247 85.095 8.20861 85.095 9.19848C85.095 9.83828 84.9834 10.4298 84.76 10.973C84.5367 11.5102 84.2651 11.9327 83.9452 12.2405C83.6313 12.5484 83.3205 12.8079 83.0127 13.0192C82.7048 13.2304 82.4393 13.3723 82.2159 13.4447L81.8809 13.5533L83.6283 18.4695H80.7311L79.192 13.9245H76.7113L75.7425 18.4695H72.963ZM80.0883 11.4257C80.6557 11.4257 81.1567 11.2537 81.5912 10.9096C82.0318 10.5596 82.2522 10.0948 82.2522 9.51536C82.2522 9.09286 82.1254 8.73373 81.8719 8.43797C81.6184 8.14222 81.2834 7.99434 80.8669 7.99434H77.9697L77.2273 11.4257H80.0883Z"
        fill="#5946D7" />
    <path
        d="M85.8914 17.3921C85.8914 17.0118 86.0574 16.6648 86.3893 16.3509C86.7213 16.031 87.1046 15.8711 87.5392 15.8711C87.9375 15.8711 88.2635 15.9948 88.517 16.2423C88.7765 16.4897 88.9063 16.7885 88.9063 17.1386C88.9063 17.549 88.7403 17.9051 88.4083 18.2069C88.0764 18.5027 87.6931 18.6506 87.2585 18.6506C86.8601 18.6506 86.5312 18.5238 86.2716 18.2703C86.0181 18.0168 85.8914 17.7241 85.8914 17.3921Z"
        fill="#2E1066" />
    <path
        d="M85.8914 17.3921C85.8914 17.0118 86.0574 16.6648 86.3893 16.3509C86.7213 16.031 87.1046 15.8711 87.5392 15.8711C87.9375 15.8711 88.2635 15.9948 88.517 16.2423C88.7765 16.4897 88.9063 16.7885 88.9063 17.1386C88.9063 17.549 88.7403 17.9051 88.4083 18.2069C88.0764 18.5027 87.6931 18.6506 87.2585 18.6506C86.8601 18.6506 86.5312 18.5238 86.2716 18.2703C86.0181 18.0168 85.8914 17.7241 85.8914 17.3921Z"
        fill="#410F9E" />
    <path
        d="M85.8914 17.3921C85.8914 17.0118 86.0574 16.6648 86.3893 16.3509C86.7213 16.031 87.1046 15.8711 87.5392 15.8711C87.9375 15.8711 88.2635 15.9948 88.517 16.2423C88.7765 16.4897 88.9063 16.7885 88.9063 17.1386C88.9063 17.549 88.7403 17.9051 88.4083 18.2069C88.0764 18.5027 87.6931 18.6506 87.2585 18.6506C86.8601 18.6506 86.5312 18.5238 86.2716 18.2703C86.0181 18.0168 85.8914 17.7241 85.8914 17.3921Z"
        fill="#453888" />
    <path
        d="M85.8914 17.3921C85.8914 17.0118 86.0574 16.6648 86.3893 16.3509C86.7213 16.031 87.1046 15.8711 87.5392 15.8711C87.9375 15.8711 88.2635 15.9948 88.517 16.2423C88.7765 16.4897 88.9063 16.7885 88.9063 17.1386C88.9063 17.549 88.7403 17.9051 88.4083 18.2069C88.0764 18.5027 87.6931 18.6506 87.2585 18.6506C86.8601 18.6506 86.5312 18.5238 86.2716 18.2703C86.0181 18.0168 85.8914 17.7241 85.8914 17.3921Z"
        fill="#5946D7" />
    <path
        d="M91.5043 18.4695L94.2476 5.48646H99.7342C100.833 5.48646 101.756 5.85766 102.505 6.60006C103.259 7.34247 103.636 8.20861 103.636 9.19848C103.636 9.83828 103.525 10.4298 103.301 10.973C103.078 11.5102 102.806 11.9327 102.487 12.2405C102.173 12.5484 101.862 12.8079 101.554 13.0192C101.246 13.2304 100.981 13.3723 100.757 13.4447L100.422 13.5533L102.17 18.4695H99.2724L97.7333 13.9245H95.2526L94.2838 18.4695H91.5043ZM98.6296 11.4257C99.197 11.4257 99.698 11.2537 100.133 10.9096C100.573 10.5596 100.793 10.0948 100.793 9.51536C100.793 9.09286 100.667 8.73373 100.413 8.43797C100.16 8.14222 99.8247 7.99434 99.4082 7.99434H96.511L95.7686 11.4257H98.6296Z"
        fill="#2E1066" />
    <path
        d="M91.5043 18.4695L94.2476 5.48646H99.7342C100.833 5.48646 101.756 5.85766 102.505 6.60006C103.259 7.34247 103.636 8.20861 103.636 9.19848C103.636 9.83828 103.525 10.4298 103.301 10.973C103.078 11.5102 102.806 11.9327 102.487 12.2405C102.173 12.5484 101.862 12.8079 101.554 13.0192C101.246 13.2304 100.981 13.3723 100.757 13.4447L100.422 13.5533L102.17 18.4695H99.2724L97.7333 13.9245H95.2526L94.2838 18.4695H91.5043ZM98.6296 11.4257C99.197 11.4257 99.698 11.2537 100.133 10.9096C100.573 10.5596 100.793 10.0948 100.793 9.51536C100.793 9.09286 100.667 8.73373 100.413 8.43797C100.16 8.14222 99.8247 7.99434 99.4082 7.99434H96.511L95.7686 11.4257H98.6296Z"
        fill="#410F9E" />
    <path
        d="M91.5043 18.4695L94.2476 5.48646H99.7342C100.833 5.48646 101.756 5.85766 102.505 6.60006C103.259 7.34247 103.636 8.20861 103.636 9.19848C103.636 9.83828 103.525 10.4298 103.301 10.973C103.078 11.5102 102.806 11.9327 102.487 12.2405C102.173 12.5484 101.862 12.8079 101.554 13.0192C101.246 13.2304 100.981 13.3723 100.757 13.4447L100.422 13.5533L102.17 18.4695H99.2724L97.7333 13.9245H95.2526L94.2838 18.4695H91.5043ZM98.6296 11.4257C99.197 11.4257 99.698 11.2537 100.133 10.9096C100.573 10.5596 100.793 10.0948 100.793 9.51536C100.793 9.09286 100.667 8.73373 100.413 8.43797C100.16 8.14222 99.8247 7.99434 99.4082 7.99434H96.511L95.7686 11.4257H98.6296Z"
        fill="#453888" />
    <path
        d="M91.5043 18.4695L94.2476 5.48646H99.7342C100.833 5.48646 101.756 5.85766 102.505 6.60006C103.259 7.34247 103.636 8.20861 103.636 9.19848C103.636 9.83828 103.525 10.4298 103.301 10.973C103.078 11.5102 102.806 11.9327 102.487 12.2405C102.173 12.5484 101.862 12.8079 101.554 13.0192C101.246 13.2304 100.981 13.3723 100.757 13.4447L100.422 13.5533L102.17 18.4695H99.2724L97.7333 13.9245H95.2526L94.2838 18.4695H91.5043ZM98.6296 11.4257C99.197 11.4257 99.698 11.2537 100.133 10.9096C100.573 10.5596 100.793 10.0948 100.793 9.51536C100.793 9.09286 100.667 8.73373 100.413 8.43797C100.16 8.14222 99.8247 7.99434 99.4082 7.99434H96.511L95.7686 11.4257H98.6296Z"
        fill="#5946D7" />
    <path
        d="M111.16 16.2423C111.95 16.2423 112.672 15.9526 113.323 15.3731C113.981 14.7937 114.404 14.0634 114.591 13.1821L116.221 5.48646H119L117.37 13.1821C117.026 14.7997 116.278 16.1336 115.125 17.1839C113.978 18.2281 112.614 18.7502 111.033 18.7502C109.584 18.7502 108.374 18.3246 107.402 17.4736C106.437 16.6165 105.954 15.5331 105.954 14.2233C105.954 13.8913 105.99 13.5443 106.062 13.1821L107.692 5.48646H110.472L108.842 13.1821C108.794 13.3934 108.769 13.6167 108.769 13.8521C108.769 14.5583 108.993 15.1347 109.439 15.5814C109.892 16.022 110.465 16.2423 111.16 16.2423Z"
        fill="#2E1066" />
    <path
        d="M111.16 16.2423C111.95 16.2423 112.672 15.9526 113.323 15.3731C113.981 14.7937 114.404 14.0634 114.591 13.1821L116.221 5.48646H119L117.37 13.1821C117.026 14.7997 116.278 16.1336 115.125 17.1839C113.978 18.2281 112.614 18.7502 111.033 18.7502C109.584 18.7502 108.374 18.3246 107.402 17.4736C106.437 16.6165 105.954 15.5331 105.954 14.2233C105.954 13.8913 105.99 13.5443 106.062 13.1821L107.692 5.48646H110.472L108.842 13.1821C108.794 13.3934 108.769 13.6167 108.769 13.8521C108.769 14.5583 108.993 15.1347 109.439 15.5814C109.892 16.022 110.465 16.2423 111.16 16.2423Z"
        fill="#410F9E" />
    <path
        d="M111.16 16.2423C111.95 16.2423 112.672 15.9526 113.323 15.3731C113.981 14.7937 114.404 14.0634 114.591 13.1821L116.221 5.48646H119L117.37 13.1821C117.026 14.7997 116.278 16.1336 115.125 17.1839C113.978 18.2281 112.614 18.7502 111.033 18.7502C109.584 18.7502 108.374 18.3246 107.402 17.4736C106.437 16.6165 105.954 15.5331 105.954 14.2233C105.954 13.8913 105.99 13.5443 106.062 13.1821L107.692 5.48646H110.472L108.842 13.1821C108.794 13.3934 108.769 13.6167 108.769 13.8521C108.769 14.5583 108.993 15.1347 109.439 15.5814C109.892 16.022 110.465 16.2423 111.16 16.2423Z"
        fill="#453888" />
    <path
        d="M111.16 16.2423C111.95 16.2423 112.672 15.9526 113.323 15.3731C113.981 14.7937 114.404 14.0634 114.591 13.1821L116.221 5.48646H119L117.37 13.1821C117.026 14.7997 116.278 16.1336 115.125 17.1839C113.978 18.2281 112.614 18.7502 111.033 18.7502C109.584 18.7502 108.374 18.3246 107.402 17.4736C106.437 16.6165 105.954 15.5331 105.954 14.2233C105.954 13.8913 105.99 13.5443 106.062 13.1821L107.692 5.48646H110.472L108.842 13.1821C108.794 13.3934 108.769 13.6167 108.769 13.8521C108.769 14.5583 108.993 15.1347 109.439 15.5814C109.892 16.022 110.465 16.2423 111.16 16.2423Z"
        fill="#5946D7" />
    <g clip-path="url(#clip0_1_2008)">
        <g clip-path="url(#clip1_1_2008)">
            <path
                d="M22.6018 14.3242C22.9189 14.2862 23.1775 13.997 23.1775 13.6762V10.6614C23.1785 10.3407 22.9207 10.0505 22.6027 10.0125L22.6018 14.3242ZM22.6018 14.3242L22.1577 14.3776L22.6018 14.3242ZM17.4982 21.2033L17.8532 21.4821C18.1044 21.6787 18.4929 21.6555 18.7182 21.4302M17.4982 21.2033L20.9015 18.4302C21.099 18.6833 21.0758 19.0727 20.8496 19.297L18.7182 21.4302M17.4982 21.2033C17.6971 21.073 17.8914 20.9363 18.0809 20.7935L17.4982 21.2033ZM18.7182 21.4302L18.2564 20.9688L18.2565 20.9685L18.7182 21.4302Z"
                fill="#2E1066" />
            <path
                d="M22.6018 14.3242C22.9189 14.2862 23.1775 13.997 23.1775 13.6762V10.6614C23.1785 10.3407 22.9207 10.0505 22.6027 10.0125L22.6018 14.3242ZM22.6018 14.3242L22.1577 14.3776L22.6018 14.3242ZM17.4982 21.2033L17.8532 21.4821C18.1044 21.6787 18.4929 21.6555 18.7182 21.4302M17.4982 21.2033L20.9015 18.4302C21.099 18.6833 21.0758 19.0727 20.8496 19.297L18.7182 21.4302M17.4982 21.2033C17.6971 21.073 17.8914 20.9363 18.0809 20.7935L17.4982 21.2033ZM18.7182 21.4302L18.2564 20.9688L18.2565 20.9685L18.7182 21.4302Z"
                fill="#410F9E" />
            <path
                d="M22.6018 14.3242C22.9189 14.2862 23.1775 13.997 23.1775 13.6762V10.6614C23.1785 10.3407 22.9207 10.0505 22.6027 10.0125L22.6018 14.3242ZM22.6018 14.3242L22.1577 14.3776L22.6018 14.3242ZM17.4982 21.2033L17.8532 21.4821C18.1044 21.6787 18.4929 21.6555 18.7182 21.4302M17.4982 21.2033L20.9015 18.4302C21.099 18.6833 21.0758 19.0727 20.8496 19.297L18.7182 21.4302M17.4982 21.2033C17.6971 21.073 17.8914 20.9363 18.0809 20.7935L17.4982 21.2033ZM18.7182 21.4302L18.2564 20.9688L18.2565 20.9685L18.7182 21.4302Z"
                fill="#453888" />
            <path
                d="M22.6018 14.3242C22.9189 14.2862 23.1775 13.997 23.1775 13.6762V10.6614C23.1785 10.3407 22.9207 10.0505 22.6027 10.0125L22.6018 14.3242ZM22.6018 14.3242L22.1577 14.3776L22.6018 14.3242ZM17.4982 21.2033L17.8532 21.4821C18.1044 21.6787 18.4929 21.6555 18.7182 21.4302M17.4982 21.2033L20.9015 18.4302C21.099 18.6833 21.0758 19.0727 20.8496 19.297L18.7182 21.4302M17.4982 21.2033C17.6971 21.073 17.8914 20.9363 18.0809 20.7935L17.4982 21.2033ZM18.7182 21.4302L18.2564 20.9688L18.2565 20.9685L18.7182 21.4302Z"
                fill="#5946D7" />
            <path
                d="M22.6018 14.3242C22.9189 14.2862 23.1775 13.997 23.1775 13.6762V10.6614C23.1785 10.3407 22.9207 10.0505 22.6027 10.0125L22.6018 14.3242ZM22.6018 14.3242L22.1577 14.3776L22.6018 14.3242ZM17.4982 21.2033L17.8532 21.4821C18.1044 21.6787 18.4929 21.6555 18.7182 21.4302M17.4982 21.2033L20.9015 18.4302C21.099 18.6833 21.0758 19.0727 20.8496 19.297L18.7182 21.4302M17.4982 21.2033C17.6971 21.073 17.8914 20.9363 18.0809 20.7935L17.4982 21.2033ZM18.7182 21.4302L18.2564 20.9688L18.2565 20.9685L18.7182 21.4302Z"
                stroke="#2E1066" stroke-width="10" stroke-linecap="round" stroke-linejoin="round" />
            <path
                d="M22.6018 14.3242C22.9189 14.2862 23.1775 13.997 23.1775 13.6762V10.6614C23.1785 10.3407 22.9207 10.0505 22.6027 10.0125L22.6018 14.3242ZM22.6018 14.3242L22.1577 14.3776L22.6018 14.3242ZM17.4982 21.2033L17.8532 21.4821C18.1044 21.6787 18.4929 21.6555 18.7182 21.4302M17.4982 21.2033L20.9015 18.4302C21.099 18.6833 21.0758 19.0727 20.8496 19.297L18.7182 21.4302M17.4982 21.2033C17.6971 21.073 17.8914 20.9363 18.0809 20.7935L17.4982 21.2033ZM18.7182 21.4302L18.2564 20.9688L18.2565 20.9685L18.7182 21.4302Z"
                stroke="#410F9E" stroke-width="10" stroke-linecap="round" stroke-linejoin="round" />
            <path
                d="M22.6018 14.3242C22.9189 14.2862 23.1775 13.997 23.1775 13.6762V10.6614C23.1785 10.3407 22.9207 10.0505 22.6027 10.0125L22.6018 14.3242ZM22.6018 14.3242L22.1577 14.3776L22.6018 14.3242ZM17.4982 21.2033L17.8532 21.4821C18.1044 21.6787 18.4929 21.6555 18.7182 21.4302M17.4982 21.2033L20.9015 18.4302C21.099 18.6833 21.0758 19.0727 20.8496 19.297L18.7182 21.4302M17.4982 21.2033C17.6971 21.073 17.8914 20.9363 18.0809 20.7935L17.4982 21.2033ZM18.7182 21.4302L18.2564 20.9688L18.2565 20.9685L18.7182 21.4302Z"
                stroke="#453888" stroke-width="10" stroke-linecap="round" stroke-linejoin="round" />
            <path
                d="M22.6018 14.3242C22.9189 14.2862 23.1775 13.997 23.1775 13.6762V10.6614C23.1785 10.3407 22.9207 10.0505 22.6027 10.0125L22.6018 14.3242ZM22.6018 14.3242L22.1577 14.3776L22.6018 14.3242ZM17.4982 21.2033L17.8532 21.4821C18.1044 21.6787 18.4929 21.6555 18.7182 21.4302M17.4982 21.2033L20.9015 18.4302C21.099 18.6833 21.0758 19.0727 20.8496 19.297L18.7182 21.4302M17.4982 21.2033C17.6971 21.073 17.8914 20.9363 18.0809 20.7935L17.4982 21.2033ZM18.7182 21.4302L18.2564 20.9688L18.2565 20.9685L18.7182 21.4302Z"
                stroke="#5946D7" stroke-width="10" stroke-linecap="round" stroke-linejoin="round" />
        </g>
        <circle cx="11.5889" cy="12.1685" r="7.27101" fill="white" />
        <circle cx="11.5889" cy="12.1685" r="7.27101" stroke="#2E1066" stroke-width="4" />
        <circle cx="11.5889" cy="12.1685" r="7.27101" stroke="#410F9E" stroke-width="4" />
        <circle cx="11.5889" cy="12.1685" r="7.27101" stroke="#453888" stroke-width="4" />
        <circle cx="11.5889" cy="12.1685" r="7.27101" stroke="#5946D7" stroke-width="4" />
        <g clip-path="url(#clip2_1_2008)">
            <path
                d="M13.5762 10.386C13.5663 10.3743 13.5579 10.3629 13.5462 10.3515L13.0318 9.84206C13.4584 9.74275 13.9177 9.37594 13.9177 8.99959C13.9177 8.56114 13.3248 8.40556 12.8188 8.40556C12.2897 8.40556 12.2283 8.7776 12.222 9.04049L10.8948 7.72728C10.6252 7.45333 10.1138 7.23779 9.73152 7.23779H7.14664H7.14604H4.56057C4.17859 7.23779 3.66748 7.45333 3.39755 7.72728L2.07066 9.04049C2.06377 8.7776 2.00235 8.40556 1.47387 8.40556C0.96726 8.40556 0.374667 8.56114 0.374667 8.99959C0.374667 9.37594 0.834241 9.74275 1.26086 9.84206L0.746461 10.3515C0.734777 10.3629 0.726688 10.3743 0.716501 10.386C0.166151 10.8687 -0.193359 11.7641 -0.193359 12.4137V14.3443C-0.193359 14.8129 -0.0133046 15.2381 0.277599 15.5552V16.3038C0.277599 16.7417 0.634713 17.0986 1.07391 17.0986H2.0368C2.47601 17.0986 2.83282 16.7423 2.83282 16.3038V16.1123H7.14604H7.14664H11.4596V16.3038C11.4596 16.7423 11.8161 17.0986 12.2559 17.0986H13.2185C13.658 17.0986 14.0145 16.7417 14.0145 16.3038V15.5552C14.3057 15.2381 14.4854 14.8129 14.4854 14.3443V12.4137C14.486 11.7641 14.1265 10.8687 13.5762 10.386ZM3.88499 8.31086C4.07163 8.15128 4.39789 8.03014 4.56057 8.03014L6.3736 8.11233L7.32225 8.31086H9.58952C9.7522 8.31086 10.0542 8.24599 10.2408 8.40556L11.5885 10.0419H7.14664H7.14604H2.14496L3.88499 8.31086ZM0.403728 12.1216C0.403728 11.6463 0.766234 11.2604 1.21382 11.2604C1.66112 11.2604 3.12282 12.141 3.12282 12.6164C3.12282 13.0917 1.66112 12.9816 1.21382 12.9816C0.766234 12.9816 0.403728 12.5973 0.403728 12.1216ZM2.83312 15.2658H2.67883H2.52454L1.60929 15.2674C1.35523 15.1862 1.17608 15.0915 1.04935 14.9897C0.985235 14.9384 0.936102 14.8849 0.897755 14.8317C0.859107 14.7779 0.830946 14.725 0.812671 14.6721C0.698826 14.3419 0.934005 14.0384 0.934005 14.0384H2.49608L3.53746 15.2652L2.83312 15.2658ZM9.39239 15.2664H7.14664H7.14604H4.9003C4.43204 15.2664 4.05186 14.8763 4.05186 14.396H7.14604H7.14664H10.2408C10.2408 14.8769 9.86065 15.2664 9.39239 15.2664ZM9.58952 13.802H7.14664H7.14604H4.70317C4.19387 13.802 3.78043 13.1575 3.78043 12.3627H7.14604H7.14664H10.5123C10.5123 13.1578 10.0988 13.802 9.58952 13.802ZM13.4803 14.6727C13.4617 14.7256 13.4336 14.7785 13.3949 14.832C13.3569 14.8852 13.3078 14.9387 13.2433 14.99C13.1169 15.0918 12.9375 15.1871 12.6834 15.2677L11.7681 15.2661H11.6139H11.4596H10.7546L11.7966 14.0393H13.3584C13.3584 14.0393 13.5939 14.3419 13.4803 14.6727ZM13.0789 12.9816C12.6319 12.9816 11.1702 13.0911 11.1702 12.6164C11.1702 12.1416 12.6319 11.2604 13.0789 11.2604C13.5265 11.2604 13.889 11.6463 13.889 12.1216C13.889 12.5967 13.5265 12.9816 13.0789 12.9816Z"
                fill="#2E1066" />
            <path
                d="M13.5762 10.386C13.5663 10.3743 13.5579 10.3629 13.5462 10.3515L13.0318 9.84206C13.4584 9.74275 13.9177 9.37594 13.9177 8.99959C13.9177 8.56114 13.3248 8.40556 12.8188 8.40556C12.2897 8.40556 12.2283 8.7776 12.222 9.04049L10.8948 7.72728C10.6252 7.45333 10.1138 7.23779 9.73152 7.23779H7.14664H7.14604H4.56057C4.17859 7.23779 3.66748 7.45333 3.39755 7.72728L2.07066 9.04049C2.06377 8.7776 2.00235 8.40556 1.47387 8.40556C0.96726 8.40556 0.374667 8.56114 0.374667 8.99959C0.374667 9.37594 0.834241 9.74275 1.26086 9.84206L0.746461 10.3515C0.734777 10.3629 0.726688 10.3743 0.716501 10.386C0.166151 10.8687 -0.193359 11.7641 -0.193359 12.4137V14.3443C-0.193359 14.8129 -0.0133046 15.2381 0.277599 15.5552V16.3038C0.277599 16.7417 0.634713 17.0986 1.07391 17.0986H2.0368C2.47601 17.0986 2.83282 16.7423 2.83282 16.3038V16.1123H7.14604H7.14664H11.4596V16.3038C11.4596 16.7423 11.8161 17.0986 12.2559 17.0986H13.2185C13.658 17.0986 14.0145 16.7417 14.0145 16.3038V15.5552C14.3057 15.2381 14.4854 14.8129 14.4854 14.3443V12.4137C14.486 11.7641 14.1265 10.8687 13.5762 10.386ZM3.88499 8.31086C4.07163 8.15128 4.39789 8.03014 4.56057 8.03014L6.3736 8.11233L7.32225 8.31086H9.58952C9.7522 8.31086 10.0542 8.24599 10.2408 8.40556L11.5885 10.0419H7.14664H7.14604H2.14496L3.88499 8.31086ZM0.403728 12.1216C0.403728 11.6463 0.766234 11.2604 1.21382 11.2604C1.66112 11.2604 3.12282 12.141 3.12282 12.6164C3.12282 13.0917 1.66112 12.9816 1.21382 12.9816C0.766234 12.9816 0.403728 12.5973 0.403728 12.1216ZM2.83312 15.2658H2.67883H2.52454L1.60929 15.2674C1.35523 15.1862 1.17608 15.0915 1.04935 14.9897C0.985235 14.9384 0.936102 14.8849 0.897755 14.8317C0.859107 14.7779 0.830946 14.725 0.812671 14.6721C0.698826 14.3419 0.934005 14.0384 0.934005 14.0384H2.49608L3.53746 15.2652L2.83312 15.2658ZM9.39239 15.2664H7.14664H7.14604H4.9003C4.43204 15.2664 4.05186 14.8763 4.05186 14.396H7.14604H7.14664H10.2408C10.2408 14.8769 9.86065 15.2664 9.39239 15.2664ZM9.58952 13.802H7.14664H7.14604H4.70317C4.19387 13.802 3.78043 13.1575 3.78043 12.3627H7.14604H7.14664H10.5123C10.5123 13.1578 10.0988 13.802 9.58952 13.802ZM13.4803 14.6727C13.4617 14.7256 13.4336 14.7785 13.3949 14.832C13.3569 14.8852 13.3078 14.9387 13.2433 14.99C13.1169 15.0918 12.9375 15.1871 12.6834 15.2677L11.7681 15.2661H11.6139H11.4596H10.7546L11.7966 14.0393H13.3584C13.3584 14.0393 13.5939 14.3419 13.4803 14.6727ZM13.0789 12.9816C12.6319 12.9816 11.1702 13.0911 11.1702 12.6164C11.1702 12.1416 12.6319 11.2604 13.0789 11.2604C13.5265 11.2604 13.889 11.6463 13.889 12.1216C13.889 12.5967 13.5265 12.9816 13.0789 12.9816Z"
                fill="#410F9E" />
            <path
                d="M13.5762 10.386C13.5663 10.3743 13.5579 10.3629 13.5462 10.3515L13.0318 9.84206C13.4584 9.74275 13.9177 9.37594 13.9177 8.99959C13.9177 8.56114 13.3248 8.40556 12.8188 8.40556C12.2897 8.40556 12.2283 8.7776 12.222 9.04049L10.8948 7.72728C10.6252 7.45333 10.1138 7.23779 9.73152 7.23779H7.14664H7.14604H4.56057C4.17859 7.23779 3.66748 7.45333 3.39755 7.72728L2.07066 9.04049C2.06377 8.7776 2.00235 8.40556 1.47387 8.40556C0.96726 8.40556 0.374667 8.56114 0.374667 8.99959C0.374667 9.37594 0.834241 9.74275 1.26086 9.84206L0.746461 10.3515C0.734777 10.3629 0.726688 10.3743 0.716501 10.386C0.166151 10.8687 -0.193359 11.7641 -0.193359 12.4137V14.3443C-0.193359 14.8129 -0.0133046 15.2381 0.277599 15.5552V16.3038C0.277599 16.7417 0.634713 17.0986 1.07391 17.0986H2.0368C2.47601 17.0986 2.83282 16.7423 2.83282 16.3038V16.1123H7.14604H7.14664H11.4596V16.3038C11.4596 16.7423 11.8161 17.0986 12.2559 17.0986H13.2185C13.658 17.0986 14.0145 16.7417 14.0145 16.3038V15.5552C14.3057 15.2381 14.4854 14.8129 14.4854 14.3443V12.4137C14.486 11.7641 14.1265 10.8687 13.5762 10.386ZM3.88499 8.31086C4.07163 8.15128 4.39789 8.03014 4.56057 8.03014L6.3736 8.11233L7.32225 8.31086H9.58952C9.7522 8.31086 10.0542 8.24599 10.2408 8.40556L11.5885 10.0419H7.14664H7.14604H2.14496L3.88499 8.31086ZM0.403728 12.1216C0.403728 11.6463 0.766234 11.2604 1.21382 11.2604C1.66112 11.2604 3.12282 12.141 3.12282 12.6164C3.12282 13.0917 1.66112 12.9816 1.21382 12.9816C0.766234 12.9816 0.403728 12.5973 0.403728 12.1216ZM2.83312 15.2658H2.67883H2.52454L1.60929 15.2674C1.35523 15.1862 1.17608 15.0915 1.04935 14.9897C0.985235 14.9384 0.936102 14.8849 0.897755 14.8317C0.859107 14.7779 0.830946 14.725 0.812671 14.6721C0.698826 14.3419 0.934005 14.0384 0.934005 14.0384H2.49608L3.53746 15.2652L2.83312 15.2658ZM9.39239 15.2664H7.14664H7.14604H4.9003C4.43204 15.2664 4.05186 14.8763 4.05186 14.396H7.14604H7.14664H10.2408C10.2408 14.8769 9.86065 15.2664 9.39239 15.2664ZM9.58952 13.802H7.14664H7.14604H4.70317C4.19387 13.802 3.78043 13.1575 3.78043 12.3627H7.14604H7.14664H10.5123C10.5123 13.1578 10.0988 13.802 9.58952 13.802ZM13.4803 14.6727C13.4617 14.7256 13.4336 14.7785 13.3949 14.832C13.3569 14.8852 13.3078 14.9387 13.2433 14.99C13.1169 15.0918 12.9375 15.1871 12.6834 15.2677L11.7681 15.2661H11.6139H11.4596H10.7546L11.7966 14.0393H13.3584C13.3584 14.0393 13.5939 14.3419 13.4803 14.6727ZM13.0789 12.9816C12.6319 12.9816 11.1702 13.0911 11.1702 12.6164C11.1702 12.1416 12.6319 11.2604 13.0789 11.2604C13.5265 11.2604 13.889 11.6463 13.889 12.1216C13.889 12.5967 13.5265 12.9816 13.0789 12.9816Z"
                fill="#453888" />
            <path
                d="M13.5762 10.386C13.5663 10.3743 13.5579 10.3629 13.5462 10.3515L13.0318 9.84206C13.4584 9.74275 13.9177 9.37594 13.9177 8.99959C13.9177 8.56114 13.3248 8.40556 12.8188 8.40556C12.2897 8.40556 12.2283 8.7776 12.222 9.04049L10.8948 7.72728C10.6252 7.45333 10.1138 7.23779 9.73152 7.23779H7.14664H7.14604H4.56057C4.17859 7.23779 3.66748 7.45333 3.39755 7.72728L2.07066 9.04049C2.06377 8.7776 2.00235 8.40556 1.47387 8.40556C0.96726 8.40556 0.374667 8.56114 0.374667 8.99959C0.374667 9.37594 0.834241 9.74275 1.26086 9.84206L0.746461 10.3515C0.734777 10.3629 0.726688 10.3743 0.716501 10.386C0.166151 10.8687 -0.193359 11.7641 -0.193359 12.4137V14.3443C-0.193359 14.8129 -0.0133046 15.2381 0.277599 15.5552V16.3038C0.277599 16.7417 0.634713 17.0986 1.07391 17.0986H2.0368C2.47601 17.0986 2.83282 16.7423 2.83282 16.3038V16.1123H7.14604H7.14664H11.4596V16.3038C11.4596 16.7423 11.8161 17.0986 12.2559 17.0986H13.2185C13.658 17.0986 14.0145 16.7417 14.0145 16.3038V15.5552C14.3057 15.2381 14.4854 14.8129 14.4854 14.3443V12.4137C14.486 11.7641 14.1265 10.8687 13.5762 10.386ZM3.88499 8.31086C4.07163 8.15128 4.39789 8.03014 4.56057 8.03014L6.3736 8.11233L7.32225 8.31086H9.58952C9.7522 8.31086 10.0542 8.24599 10.2408 8.40556L11.5885 10.0419H7.14664H7.14604H2.14496L3.88499 8.31086ZM0.403728 12.1216C0.403728 11.6463 0.766234 11.2604 1.21382 11.2604C1.66112 11.2604 3.12282 12.141 3.12282 12.6164C3.12282 13.0917 1.66112 12.9816 1.21382 12.9816C0.766234 12.9816 0.403728 12.5973 0.403728 12.1216ZM2.83312 15.2658H2.67883H2.52454L1.60929 15.2674C1.35523 15.1862 1.17608 15.0915 1.04935 14.9897C0.985235 14.9384 0.936102 14.8849 0.897755 14.8317C0.859107 14.7779 0.830946 14.725 0.812671 14.6721C0.698826 14.3419 0.934005 14.0384 0.934005 14.0384H2.49608L3.53746 15.2652L2.83312 15.2658ZM9.39239 15.2664H7.14664H7.14604H4.9003C4.43204 15.2664 4.05186 14.8763 4.05186 14.396H7.14604H7.14664H10.2408C10.2408 14.8769 9.86065 15.2664 9.39239 15.2664ZM9.58952 13.802H7.14664H7.14604H4.70317C4.19387 13.802 3.78043 13.1575 3.78043 12.3627H7.14604H7.14664H10.5123C10.5123 13.1578 10.0988 13.802 9.58952 13.802ZM13.4803 14.6727C13.4617 14.7256 13.4336 14.7785 13.3949 14.832C13.3569 14.8852 13.3078 14.9387 13.2433 14.99C13.1169 15.0918 12.9375 15.1871 12.6834 15.2677L11.7681 15.2661H11.6139H11.4596H10.7546L11.7966 14.0393H13.3584C13.3584 14.0393 13.5939 14.3419 13.4803 14.6727ZM13.0789 12.9816C12.6319 12.9816 11.1702 13.0911 11.1702 12.6164C11.1702 12.1416 12.6319 11.2604 13.0789 11.2604C13.5265 11.2604 13.889 11.6463 13.889 12.1216C13.889 12.5967 13.5265 12.9816 13.0789 12.9816Z"
                fill="#5946D7" />
            <path
                d="M9.39239 15.2664H7.14664H7.14604H4.9003C4.43204 15.2664 4.05186 14.8763 4.05186 14.396H7.14604H7.14664H10.2408C10.2408 14.8769 9.86065 15.2664 9.39239 15.2664Z"
                fill="#2E1066" />
            <path
                d="M9.39239 15.2664H7.14664H7.14604H4.9003C4.43204 15.2664 4.05186 14.8763 4.05186 14.396H7.14604H7.14664H10.2408C10.2408 14.8769 9.86065 15.2664 9.39239 15.2664Z"
                fill="#410F9E" />
            <path
                d="M9.39239 15.2664H7.14664H7.14604H4.9003C4.43204 15.2664 4.05186 14.8763 4.05186 14.396H7.14604H7.14664H10.2408C10.2408 14.8769 9.86065 15.2664 9.39239 15.2664Z"
                fill="#453888" />
            <path
                d="M9.39239 15.2664H7.14664H7.14604H4.9003C4.43204 15.2664 4.05186 14.8763 4.05186 14.396H7.14604H7.14664H10.2408C10.2408 14.8769 9.86065 15.2664 9.39239 15.2664Z"
                fill="#5946D7" />
        </g>
        <circle cx="11.5889" cy="12.1684" r="6.0327" stroke="white" stroke-width="3" />
    </g>
    <defs>
        <clipPath id="clip0_1_2008">
            <rect width="23.1775" height="23.1775" fill="white" transform="translate(0 0.57959)" />
        </clipPath>
        <clipPath id="clip1_1_2008">
            <rect width="23.1775" height="23.1775" fill="white" transform="translate(0 0.57959)" />
        </clipPath>
        <clipPath id="clip2_1_2008">
            <rect width="11.0093" height="15.0654" fill="white"
                transform="translate(3.47656 4.63574)" />
        </clipPath>
    </defs>
</svg>
    