<svg width="32" height="32" viewBox="0 0 32 32" fill="none" xmlns="http://www.w3.org/2000/svg">
    <path d="M22.6692 15.6757H9.39697" stroke="#2E1066" stroke-width="2" stroke-linecap="round" stroke-linejoin="round"/>
    <path d="M22.6692 15.6757H9.39697" stroke="#410F9E" stroke-width="2" stroke-linecap="round" stroke-linejoin="round"/>
    <path d="M22.6692 15.6757H9.39697" stroke="#453888" stroke-width="2" stroke-linecap="round" stroke-linejoin="round"/>
    <path d="M22.6692 15.6757H9.39697" stroke="#5946D7" stroke-width="2" stroke-linecap="round" stroke-linejoin="round"/>
    <path d="M18.334 18.5795H19.0009" stroke="#2E1066" stroke-width="2" stroke-linecap="round" stroke-linejoin="round"/>
    <path d="M18.334 18.5795H19.0009" stroke="#410F9E" stroke-width="2" stroke-linecap="round" stroke-linejoin="round"/>
    <path d="M18.334 18.5795H19.0009" stroke="#453888" stroke-width="2" stroke-linecap="round" stroke-linejoin="round"/>
    <path d="M18.334 18.5795H19.0009" stroke="#5946D7" stroke-width="2" stroke-linecap="round" stroke-linejoin="round"/>
    <path fill-rule="evenodd" clip-rule="evenodd" d="M9.33057 16.4095V20.4272C9.33057 21.6537 10.3237 22.6486 11.5502 22.6508L20.4472 22.6695C21.0369 22.6691 21.6024 22.4345 22.0191 22.0172C22.4359 21.6 22.6698 21.0343 22.6695 20.4445V11.5555C22.6702 10.329 21.6777 9.33351 20.4512 9.33057H14.7888C14.1095 9.33057 13.4674 9.64115 13.0454 10.1736L10.295 13.651C9.67224 14.4358 9.33245 15.4077 9.33057 16.4095Z" fill="#5946D7" fill-opacity="0.1"/>
    <path fill-rule="evenodd" clip-rule="evenodd" d="M9.33057 16.4095V20.4272C9.33057 21.6537 10.3237 22.6486 11.5502 22.6508L20.4472 22.6695C21.0369 22.6691 21.6024 22.4345 22.0191 22.0172C22.4359 21.6 22.6698 21.0343 22.6695 20.4445V11.5555C22.6702 10.329 21.6777 9.33351 20.4512 9.33057H14.7888C14.1095 9.33057 13.4674 9.64115 13.0454 10.1736L10.295 13.651C9.67224 14.4358 9.33245 15.4077 9.33057 16.4095Z" stroke="#2E1066" stroke-width="2" stroke-linecap="round" stroke-linejoin="round"/>
    <path fill-rule="evenodd" clip-rule="evenodd" d="M9.33057 16.4095V20.4272C9.33057 21.6537 10.3237 22.6486 11.5502 22.6508L20.4472 22.6695C21.0369 22.6691 21.6024 22.4345 22.0191 22.0172C22.4359 21.6 22.6698 21.0343 22.6695 20.4445V11.5555C22.6702 10.329 21.6777 9.33351 20.4512 9.33057H14.7888C14.1095 9.33057 13.4674 9.64115 13.0454 10.1736L10.295 13.651C9.67224 14.4358 9.33245 15.4077 9.33057 16.4095Z" stroke="#410F9E" stroke-width="2" stroke-linecap="round" stroke-linejoin="round"/>
    <path fill-rule="evenodd" clip-rule="evenodd" d="M9.33057 16.4095V20.4272C9.33057 21.6537 10.3237 22.6486 11.5502 22.6508L20.4472 22.6695C21.0369 22.6691 21.6024 22.4345 22.0191 22.0172C22.4359 21.6 22.6698 21.0343 22.6695 20.4445V11.5555C22.6702 10.329 21.6777 9.33351 20.4512 9.33057H14.7888C14.1095 9.33057 13.4674 9.64115 13.0454 10.1736L10.295 13.651C9.67224 14.4358 9.33245 15.4077 9.33057 16.4095Z" stroke="#453888" stroke-width="2" stroke-linecap="round" stroke-linejoin="round"/>
    <path fill-rule="evenodd" clip-rule="evenodd" d="M9.33057 16.4095V20.4272C9.33057 21.6537 10.3237 22.6486 11.5502 22.6508L20.4472 22.6695C21.0369 22.6691 21.6024 22.4345 22.0191 22.0172C22.4359 21.6 22.6698 21.0343 22.6695 20.4445V11.5555C22.6702 10.329 21.6777 9.33351 20.4512 9.33057H14.7888C14.1095 9.33057 13.4674 9.64115 13.0454 10.1736L10.295 13.651C9.67224 14.4358 9.33245 15.4077 9.33057 16.4095Z" stroke="#5946D7" stroke-width="2" stroke-linecap="round" stroke-linejoin="round"/>
    <rect x="3.99463" y="3.99463" width="24.01" height="24.01" rx="5" stroke="#2E1066" stroke-width="2" stroke-linecap="round" stroke-linejoin="round"/>
    <rect x="3.99463" y="3.99463" width="24.01" height="24.01" rx="5" stroke="#410F9E" stroke-width="2" stroke-linecap="round" stroke-linejoin="round"/>
    <rect x="3.99463" y="3.99463" width="24.01" height="24.01" rx="5" stroke="#453888" stroke-width="2" stroke-linecap="round" stroke-linejoin="round"/>
    <rect x="3.99463" y="3.99463" width="24.01" height="24.01" rx="5" stroke="#5946D7" stroke-width="2" stroke-linecap="round" stroke-linejoin="round"/>
    </svg>
    