<svg width="32" height="32" viewBox="0 0 32 32" fill="none" xmlns="http://www.w3.org/2000/svg">
    <path d="M5.15698 16.472L7.04231 14.5867C8.08364 13.5453 9.77164 13.5453 10.813 14.5867L17.413 21.1867C18.4543 22.228 18.4543 23.916 17.413 24.9573L15.5276 26.8427C14.4863 27.884 12.7983 27.884 11.757 26.8427L5.15698 20.2427C4.11564 19.2013 4.11564 17.5133 5.15698 16.472Z" fill="#5946D7" fill-opacity="0.1"/>
    <path d="M5.15698 16.472L7.04231 14.5867C8.08364 13.5453 9.77164 13.5453 10.813 14.5867L17.413 21.1867C18.4543 22.228 18.4543 23.916 17.413 24.9573L15.5276 26.8427C14.4863 27.884 12.7983 27.884 11.757 26.8427L5.15698 20.2427C4.11564 19.2013 4.11564 17.5133 5.15698 16.472Z" stroke="#2E1066" stroke-width="2" stroke-linecap="round" stroke-linejoin="round"/>
    <path d="M5.15698 16.472L7.04231 14.5867C8.08364 13.5453 9.77164 13.5453 10.813 14.5867L17.413 21.1867C18.4543 22.228 18.4543 23.916 17.413 24.9573L15.5276 26.8427C14.4863 27.884 12.7983 27.884 11.757 26.8427L5.15698 20.2427C4.11564 19.2013 4.11564 17.5133 5.15698 16.472Z" stroke="#410F9E" stroke-width="2" stroke-linecap="round" stroke-linejoin="round"/>
    <path d="M5.15698 16.472L7.04231 14.5867C8.08364 13.5453 9.77164 13.5453 10.813 14.5867L17.413 21.1867C18.4543 22.228 18.4543 23.916 17.413 24.9573L15.5276 26.8427C14.4863 27.884 12.7983 27.884 11.757 26.8427L5.15698 20.2427C4.11564 19.2013 4.11564 17.5133 5.15698 16.472Z" stroke="#453888" stroke-width="2" stroke-linecap="round" stroke-linejoin="round"/>
    <path d="M5.15698 16.472L7.04231 14.5867C8.08364 13.5453 9.77164 13.5453 10.813 14.5867L17.413 21.1867C18.4543 22.228 18.4543 23.916 17.413 24.9573L15.5276 26.8427C14.4863 27.884 12.7983 27.884 11.757 26.8427L5.15698 20.2427C4.11564 19.2013 4.11564 17.5133 5.15698 16.472Z" stroke="#5946D7" stroke-width="2" stroke-linecap="round" stroke-linejoin="round"/>
    <path d="M6.09327 21.1865L3.2666 24.0132" stroke="#2E1066" stroke-width="2" stroke-linecap="round" stroke-linejoin="round"/>
    <path d="M6.09327 21.1865L3.2666 24.0132" stroke="#410F9E" stroke-width="2" stroke-linecap="round" stroke-linejoin="round"/>
    <path d="M6.09327 21.1865L3.2666 24.0132" stroke="#453888" stroke-width="2" stroke-linecap="round" stroke-linejoin="round"/>
    <path d="M6.09327 21.1865L3.2666 24.0132" stroke="#5946D7" stroke-width="2" stroke-linecap="round" stroke-linejoin="round"/>
    <path d="M8.34668 29.0801L11.1733 26.2534" stroke="#2E1066" stroke-width="2" stroke-linecap="round" stroke-linejoin="round"/>
    <path d="M8.34668 29.0801L11.1733 26.2534" stroke="#410F9E" stroke-width="2" stroke-linecap="round" stroke-linejoin="round"/>
    <path d="M8.34668 29.0801L11.1733 26.2534" stroke="#453888" stroke-width="2" stroke-linecap="round" stroke-linejoin="round"/>
    <path d="M8.34668 29.0801L11.1733 26.2534" stroke="#5946D7" stroke-width="2" stroke-linecap="round" stroke-linejoin="round"/>
    <path fill-rule="evenodd" clip-rule="evenodd" d="M22.1276 5.15719L20.2423 3.27186C19.721 2.75053 18.877 2.75053 18.357 3.27186L16.8623 4.76653C16.6116 5.01719 16.4716 5.35586 16.4716 5.70919V8.92786L14.5863 10.8132C14.065 11.3345 14.065 12.1785 14.5863 12.6985L19.301 17.4132C19.8223 17.9345 20.6663 17.9345 21.1863 17.4132L23.0716 15.5279H26.2903C26.6436 15.5279 26.9836 15.3879 27.233 15.1372L28.7276 13.6425C29.249 13.1212 29.249 12.2772 28.7276 11.7572L26.8423 9.87186" fill="#5946D7" fill-opacity="0.1"/>
    <path d="M22.1276 5.15719L20.2423 3.27186C19.721 2.75053 18.877 2.75053 18.357 3.27186L16.8623 4.76653C16.6116 5.01719 16.4716 5.35586 16.4716 5.70919V8.92786L14.5863 10.8132C14.065 11.3345 14.065 12.1785 14.5863 12.6985L19.301 17.4132C19.8223 17.9345 20.6663 17.9345 21.1863 17.4132L23.0716 15.5279H26.2903C26.6436 15.5279 26.9836 15.3879 27.233 15.1372L28.7276 13.6425C29.249 13.1212 29.249 12.2772 28.7276 11.7572L26.8423 9.87186" stroke="#2E1066" stroke-width="2" stroke-linecap="round" stroke-linejoin="round"/>
    <path d="M22.1276 5.15719L20.2423 3.27186C19.721 2.75053 18.877 2.75053 18.357 3.27186L16.8623 4.76653C16.6116 5.01719 16.4716 5.35586 16.4716 5.70919V8.92786L14.5863 10.8132C14.065 11.3345 14.065 12.1785 14.5863 12.6985L19.301 17.4132C19.8223 17.9345 20.6663 17.9345 21.1863 17.4132L23.0716 15.5279H26.2903C26.6436 15.5279 26.9836 15.3879 27.233 15.1372L28.7276 13.6425C29.249 13.1212 29.249 12.2772 28.7276 11.7572L26.8423 9.87186" stroke="#410F9E" stroke-width="2" stroke-linecap="round" stroke-linejoin="round"/>
    <path d="M22.1276 5.15719L20.2423 3.27186C19.721 2.75053 18.877 2.75053 18.357 3.27186L16.8623 4.76653C16.6116 5.01719 16.4716 5.35586 16.4716 5.70919V8.92786L14.5863 10.8132C14.065 11.3345 14.065 12.1785 14.5863 12.6985L19.301 17.4132C19.8223 17.9345 20.6663 17.9345 21.1863 17.4132L23.0716 15.5279H26.2903C26.6436 15.5279 26.9836 15.3879 27.233 15.1372L28.7276 13.6425C29.249 13.1212 29.249 12.2772 28.7276 11.7572L26.8423 9.87186" stroke="#453888" stroke-width="2" stroke-linecap="round" stroke-linejoin="round"/>
    <path d="M22.1276 5.15719L20.2423 3.27186C19.721 2.75053 18.877 2.75053 18.357 3.27186L16.8623 4.76653C16.6116 5.01719 16.4716 5.35586 16.4716 5.70919V8.92786L14.5863 10.8132C14.065 11.3345 14.065 12.1785 14.5863 12.6985L19.301 17.4132C19.8223 17.9345 20.6663 17.9345 21.1863 17.4132L23.0716 15.5279H26.2903C26.6436 15.5279 26.9836 15.3879 27.233 15.1372L28.7276 13.6425C29.249 13.1212 29.249 12.2772 28.7276 11.7572L26.8423 9.87186" stroke="#5946D7" stroke-width="2" stroke-linecap="round" stroke-linejoin="round"/>
    <path d="M20.3333 12.9998L19 11.6665" stroke="#2E1066" stroke-width="2" stroke-linecap="round" stroke-linejoin="round"/>
    <path d="M20.3333 12.9998L19 11.6665" stroke="#410F9E" stroke-width="2" stroke-linecap="round" stroke-linejoin="round"/>
    <path d="M20.3333 12.9998L19 11.6665" stroke="#453888" stroke-width="2" stroke-linecap="round" stroke-linejoin="round"/>
    <path d="M20.3333 12.9998L19 11.6665" stroke="#5946D7" stroke-width="2" stroke-linecap="round" stroke-linejoin="round"/>
    <path d="M21.3332 29.3333V28" stroke="#2E1066" stroke-width="2" stroke-linecap="round" stroke-linejoin="round"/>
    <path d="M21.3332 29.3333V28" stroke="#410F9E" stroke-width="2" stroke-linecap="round" stroke-linejoin="round"/>
    <path d="M21.3332 29.3333V28" stroke="#453888" stroke-width="2" stroke-linecap="round" stroke-linejoin="round"/>
    <path d="M21.3332 29.3333V28" stroke="#5946D7" stroke-width="2" stroke-linecap="round" stroke-linejoin="round"/>
    <path d="M29.3333 21.3332H28" stroke="#2E1066" stroke-width="2" stroke-linecap="round" stroke-linejoin="round"/>
    <path d="M29.3333 21.3332H28" stroke="#410F9E" stroke-width="2" stroke-linecap="round" stroke-linejoin="round"/>
    <path d="M29.3333 21.3332H28" stroke="#453888" stroke-width="2" stroke-linecap="round" stroke-linejoin="round"/>
    <path d="M29.3333 21.3332H28" stroke="#5946D7" stroke-width="2" stroke-linecap="round" stroke-linejoin="round"/>
    <path d="M27.9998 27.9998L26.6665 26.6665" stroke="#2E1066" stroke-width="2" stroke-linecap="round" stroke-linejoin="round"/>
    <path d="M27.9998 27.9998L26.6665 26.6665" stroke="#410F9E" stroke-width="2" stroke-linecap="round" stroke-linejoin="round"/>
    <path d="M27.9998 27.9998L26.6665 26.6665" stroke="#453888" stroke-width="2" stroke-linecap="round" stroke-linejoin="round"/>
    <path d="M27.9998 27.9998L26.6665 26.6665" stroke="#5946D7" stroke-width="2" stroke-linecap="round" stroke-linejoin="round"/>
    <path d="M10.6667 2.6665V3.99984" stroke="#2E1066" stroke-width="2" stroke-linecap="round" stroke-linejoin="round"/>
    <path d="M10.6667 2.6665V3.99984" stroke="#410F9E" stroke-width="2" stroke-linecap="round" stroke-linejoin="round"/>
    <path d="M10.6667 2.6665V3.99984" stroke="#453888" stroke-width="2" stroke-linecap="round" stroke-linejoin="round"/>
    <path d="M10.6667 2.6665V3.99984" stroke="#5946D7" stroke-width="2" stroke-linecap="round" stroke-linejoin="round"/>
    <path d="M2.6665 10.6667H3.99984" stroke="#2E1066" stroke-width="2" stroke-linecap="round" stroke-linejoin="round"/>
    <path d="M2.6665 10.6667H3.99984" stroke="#410F9E" stroke-width="2" stroke-linecap="round" stroke-linejoin="round"/>
    <path d="M2.6665 10.6667H3.99984" stroke="#453888" stroke-width="2" stroke-linecap="round" stroke-linejoin="round"/>
    <path d="M2.6665 10.6667H3.99984" stroke="#5946D7" stroke-width="2" stroke-linecap="round" stroke-linejoin="round"/>
    <path d="M4 4L5.33333 5.33333" stroke="#2E1066" stroke-width="2" stroke-linecap="round" stroke-linejoin="round"/>
    <path d="M4 4L5.33333 5.33333" stroke="#410F9E" stroke-width="2" stroke-linecap="round" stroke-linejoin="round"/>
    <path d="M4 4L5.33333 5.33333" stroke="#453888" stroke-width="2" stroke-linecap="round" stroke-linejoin="round"/>
    <path d="M4 4L5.33333 5.33333" stroke="#5946D7" stroke-width="2" stroke-linecap="round" stroke-linejoin="round"/>
    <path d="M10 19.333L12.6667 21.9997" stroke="#2E1066" stroke-width="2" stroke-linecap="round" stroke-linejoin="round"/>
    <path d="M10 19.333L12.6667 21.9997" stroke="#410F9E" stroke-width="2" stroke-linecap="round" stroke-linejoin="round"/>
    <path d="M10 19.333L12.6667 21.9997" stroke="#453888" stroke-width="2" stroke-linecap="round" stroke-linejoin="round"/>
    <path d="M10 19.333L12.6667 21.9997" stroke="#5946D7" stroke-width="2" stroke-linecap="round" stroke-linejoin="round"/>
    <path d="M28.7276 7.98677L25.8996 10.8148C25.3783 11.3361 24.5343 11.3361 24.0143 10.8148L21.1849 7.98677C20.6636 7.46544 20.6636 6.62144 21.1849 6.10144L24.0129 3.27344" stroke="#2E1066" stroke-width="2" stroke-linecap="round" stroke-linejoin="round"/>
    <path d="M28.7276 7.98677L25.8996 10.8148C25.3783 11.3361 24.5343 11.3361 24.0143 10.8148L21.1849 7.98677C20.6636 7.46544 20.6636 6.62144 21.1849 6.10144L24.0129 3.27344" stroke="#410F9E" stroke-width="2" stroke-linecap="round" stroke-linejoin="round"/>
    <path d="M28.7276 7.98677L25.8996 10.8148C25.3783 11.3361 24.5343 11.3361 24.0143 10.8148L21.1849 7.98677C20.6636 7.46544 20.6636 6.62144 21.1849 6.10144L24.0129 3.27344" stroke="#453888" stroke-width="2" stroke-linecap="round" stroke-linejoin="round"/>
    <path d="M28.7276 7.98677L25.8996 10.8148C25.3783 11.3361 24.5343 11.3361 24.0143 10.8148L21.1849 7.98677C20.6636 7.46544 20.6636 6.62144 21.1849 6.10144L24.0129 3.27344" stroke="#5946D7" stroke-width="2" stroke-linecap="round" stroke-linejoin="round"/>
    </svg>
    