<svg width="32" height="32" viewBox="0 0 32 32" fill="none" xmlns="http://www.w3.org/2000/svg">
    <g opacity="0.1">
    <path d="M5.5 12L9 11.5L11 9H18V28.5L12.5 28L9 22.5H5.5V12Z" fill="#2E1066"/>
    <path d="M5.5 12L9 11.5L11 9H18V28.5L12.5 28L9 22.5H5.5V12Z" fill="#410F9E"/>
    <path d="M5.5 12L9 11.5L11 9H18V28.5L12.5 28L9 22.5H5.5V12Z" fill="#453888"/>
    <path d="M5.5 12L9 11.5L11 9H18V28.5L12.5 28L9 22.5H5.5V12Z" fill="#5946D7"/>
    </g>
    <path d="M1.33317 12V22.6667" stroke="#2E1066" stroke-width="2" stroke-linecap="round" stroke-linejoin="round"/>
    <path d="M1.33317 12V22.6667" stroke="#410F9E" stroke-width="2" stroke-linecap="round" stroke-linejoin="round"/>
    <path d="M1.33317 12V22.6667" stroke="#453888" stroke-width="2" stroke-linecap="round" stroke-linejoin="round"/>
    <path d="M1.33317 12V22.6667" stroke="#5946D7" stroke-width="2" stroke-linecap="round" stroke-linejoin="round"/>
    <path d="M15.9997 4V9.33333" stroke="#2E1066" stroke-width="2" stroke-linecap="round" stroke-linejoin="round"/>
    <path d="M15.9997 4V9.33333" stroke="#410F9E" stroke-width="2" stroke-linecap="round" stroke-linejoin="round"/>
    <path d="M15.9997 4V9.33333" stroke="#453888" stroke-width="2" stroke-linecap="round" stroke-linejoin="round"/>
    <path d="M15.9997 4V9.33333" stroke="#5946D7" stroke-width="2" stroke-linecap="round" stroke-linejoin="round"/>
    <path d="M12 4.00016H20" stroke="#2E1066" stroke-width="2" stroke-linecap="round" stroke-linejoin="round"/>
    <path d="M12 4.00016H20" stroke="#410F9E" stroke-width="2" stroke-linecap="round" stroke-linejoin="round"/>
    <path d="M12 4.00016H20" stroke="#453888" stroke-width="2" stroke-linecap="round" stroke-linejoin="round"/>
    <path d="M12 4.00016H20" stroke="#5946D7" stroke-width="2" stroke-linecap="round" stroke-linejoin="round"/>
    <path fill-rule="evenodd" clip-rule="evenodd" d="M26.6663 12.0002V14.6668H23.9997L21.333 9.3335H10.6663L7.99967 12.0002H5.33301V22.6668H9.33301L11.6317 27.2628C11.857 27.7148 12.3183 28.0002 12.8237 28.0002H21.333C22.069 28.0002 22.6663 27.4028 22.6663 26.6668V22.6668H26.6663V25.3335H29.333C30.069 25.3335 30.6663 24.7362 30.6663 24.0002V13.3335C30.6663 12.5975 30.069 12.0002 29.333 12.0002H26.6663Z" stroke="#2E1066" stroke-width="2" stroke-linecap="round" stroke-linejoin="round"/>
    <path fill-rule="evenodd" clip-rule="evenodd" d="M26.6663 12.0002V14.6668H23.9997L21.333 9.3335H10.6663L7.99967 12.0002H5.33301V22.6668H9.33301L11.6317 27.2628C11.857 27.7148 12.3183 28.0002 12.8237 28.0002H21.333C22.069 28.0002 22.6663 27.4028 22.6663 26.6668V22.6668H26.6663V25.3335H29.333C30.069 25.3335 30.6663 24.7362 30.6663 24.0002V13.3335C30.6663 12.5975 30.069 12.0002 29.333 12.0002H26.6663Z" stroke="#410F9E" stroke-width="2" stroke-linecap="round" stroke-linejoin="round"/>
    <path fill-rule="evenodd" clip-rule="evenodd" d="M26.6663 12.0002V14.6668H23.9997L21.333 9.3335H10.6663L7.99967 12.0002H5.33301V22.6668H9.33301L11.6317 27.2628C11.857 27.7148 12.3183 28.0002 12.8237 28.0002H21.333C22.069 28.0002 22.6663 27.4028 22.6663 26.6668V22.6668H26.6663V25.3335H29.333C30.069 25.3335 30.6663 24.7362 30.6663 24.0002V13.3335C30.6663 12.5975 30.069 12.0002 29.333 12.0002H26.6663Z" stroke="#453888" stroke-width="2" stroke-linecap="round" stroke-linejoin="round"/>
    <path fill-rule="evenodd" clip-rule="evenodd" d="M26.6663 12.0002V14.6668H23.9997L21.333 9.3335H10.6663L7.99967 12.0002H5.33301V22.6668H9.33301L11.6317 27.2628C11.857 27.7148 12.3183 28.0002 12.8237 28.0002H21.333C22.069 28.0002 22.6663 27.4028 22.6663 26.6668V22.6668H26.6663V25.3335H29.333C30.069 25.3335 30.6663 24.7362 30.6663 24.0002V13.3335C30.6663 12.5975 30.069 12.0002 29.333 12.0002H26.6663Z" stroke="#5946D7" stroke-width="2" stroke-linecap="round" stroke-linejoin="round"/>
    <path d="M5.33301 17.3337H1.33301" stroke="#2E1066" stroke-width="2" stroke-linecap="round" stroke-linejoin="round"/>
    <path d="M5.33301 17.3337H1.33301" stroke="#410F9E" stroke-width="2" stroke-linecap="round" stroke-linejoin="round"/>
    <path d="M5.33301 17.3337H1.33301" stroke="#453888" stroke-width="2" stroke-linecap="round" stroke-linejoin="round"/>
    <path d="M5.33301 17.3337H1.33301" stroke="#5946D7" stroke-width="2" stroke-linecap="round" stroke-linejoin="round"/>
    </svg>
    