<svg width="128" height="128" viewBox="0 0 128 128" fill="none" xmlns="http://www.w3.org/2000/svg">
    <rect width="128" height="128" rx="4" fill="#2F2D82"/>
    <g clip-path="url(#clip0_10_18956)">
    <path d="M7.08333 90.2091V87.4102H12.8459V92.1057H13.4807V94.6676H12.2301V93.2681H7.26199V94.6676H6V92.1057H6.38772C6.89327 91.601 7.08333 91.0504 7.08333 90.2091ZM11.4623 88.5764H8.40614V90.4959C8.40614 91.1421 8.2655 91.6163 7.9348 92.1019H11.4623V88.5764Z" fill="white"/>
    <path d="M20.7144 87.4101V93.2642H19.3383V88.5763H16.0997V91.142C16.0997 92.641 15.4916 93.2642 14.4652 93.2642H13.8837V92.1018C14.5907 92.1018 14.7199 91.8303 14.7199 90.9776V87.4062H20.7144V87.4101Z" fill="white"/>
    <path d="M24.4849 91.4137L23.1088 93.2682H21.3147L23.0024 91.2225C22.3448 91.0734 21.729 90.366 21.729 89.4712C21.729 87.8079 22.5843 87.4141 23.7817 87.4141H28.1568V93.2682H26.777V91.4137H24.4849ZM23.8957 88.5153C23.2761 88.5153 23.1088 88.7944 23.1088 89.4101C23.1088 90.0372 23.3597 90.3048 23.9375 90.3048H26.7808V88.5115H23.8957V88.5153Z" fill="white"/>
    <path d="M37.9022 87.4102V88.5764H35.4695V93.2643H34.0896V88.5764H31.6797V87.4102H37.9022Z" fill="white"/>
    <path d="M38.5959 87.4102H44.484V88.5114H39.9758V89.7962H44.3471V90.8133H39.9758V92.1592H44.484V93.2605H38.5959V87.4102Z" fill="white"/>
    <path d="M49.0208 89.5477L50.8985 87.4141H52.7649L50.1079 90.2551L53.0918 93.2682H51.0658L49.0208 90.9587L46.9795 93.2682H44.9497L47.9336 90.2551L45.2804 87.4141H47.1468L49.0208 89.5477Z" fill="white"/>
    <path d="M53.7426 92.0898H55.1262V93.4931C55.1262 94.8506 54.7043 94.9997 53.5107 94.9997V94.2273C53.9479 94.2273 54.1189 94.1164 54.1189 93.757V93.497H53.7426V92.0898Z" fill="white"/>
    <path d="M60.6567 89.5973H61.4739L63.9903 87.4102H66.0543L62.6599 90.1518L66.1874 93.2643H64.1614L61.4929 90.7598H60.6529V93.2643H59.2769V87.4102H60.6529V89.5973H60.6567Z" fill="white"/>
    <path d="M72.8359 87.4102V88.5764H70.3994V93.2643H69.0158V88.5764H66.6096V87.4102H72.8359Z" fill="white"/>
    <path d="M78.0773 93.2637H75.5533C74.0063 93.2637 73.4247 92.6825 73.4247 91.2639V89.4209C73.4247 87.8187 73.9835 87.3369 75.5533 87.3369H78.0773C79.5066 87.3369 80.168 87.7805 80.168 89.4209V91.2639C80.168 92.7246 79.6928 93.2637 78.0773 93.2637ZM75.8802 92.1051H77.7086C78.5905 92.1051 78.7843 91.9063 78.7843 91.1148V89.5509C78.7843 88.6982 78.503 88.507 77.682 88.507H75.903C75.0402 88.507 74.7969 88.7249 74.7969 89.5585V91.1224C74.7969 91.891 75.0402 92.1051 75.8802 92.1051Z" fill="white"/>
    <path d="M83.9479 87.4102H88.1064C89.3835 87.4102 90.0868 87.7964 90.0868 88.8785C90.0868 89.8229 89.8359 90.0256 89.3721 90.1785C89.9461 90.3697 90.3072 90.6259 90.3072 91.5475C90.3072 92.8055 89.6876 93.2681 88.3876 93.2681H83.9441V87.4102H83.9479ZM85.3315 89.7809H88.1444C88.5207 89.7809 88.7107 89.4864 88.7107 89.1003C88.7107 88.7446 88.5207 88.5152 88.1444 88.5152H85.3353V89.7809H85.3315ZM85.3315 92.1631H88.0988C88.8362 92.1631 88.935 91.9948 88.935 91.4748C88.935 91.0274 88.859 90.8133 88.1444 90.8133H85.3315V92.1631Z" fill="white"/>
    <path d="M100.435 87.4102V93.2643H99.0594V88.5764H95.4938V93.2643H94.1178V87.4102H100.435Z" fill="white"/>
    <path d="M107.949 87.4102L105.261 91.8151C104.475 93.1152 104.155 93.2681 103.171 93.2681H102.631V92.1669H102.905C103.505 92.1669 103.703 92.0025 103.703 91.8075C103.703 91.731 103.669 91.6392 103.6 91.5398L100.936 87.414H102.566L104.494 90.7139L106.31 87.414H107.949V87.4102Z" fill="white"/>
    <path d="M114.667 87.4102V88.5764H112.238V93.2643H110.859V88.5764H108.449V87.4102H114.667Z" fill="white"/>
    <path d="M116.724 92.1057H116.914L120.427 87.4102H122.745V93.2643H121.366V88.5764H121.175L117.709 93.2643H115.341V87.4102H116.728V92.1057H116.724Z" fill="white"/>
    <path d="M53.2294 55.2748H46.4595L49.8425 49.3786L53.2294 43.4785L56.6086 49.3786L60.0031 55.2748H53.2294Z" fill="#C21F39"/>
    <path d="M38.5768 76.5999H30.4309V68.073L31.0239 63.3124L26.3637 76.5999H20.0005L15.3441 63.0639L15.937 68.073V76.5999H7.79114V54.8008H18.5256L23.1669 68.073L27.8043 54.8008H38.5768V76.5999Z" fill="#EBB631"/>
    <path d="M84.0677 64.0695V60.2343H79.3011C78.366 60.2343 77.6514 60.4217 77.161 60.8002C76.6707 61.175 76.4198 61.63 76.4198 62.15C76.4198 62.6471 76.6479 63.0906 77.104 63.4807C77.5601 63.8745 78.1683 64.0734 78.9362 64.0734H84.0677V64.0695ZM92.8028 76.5999H83.7941V69.3386L80.7759 69.3119L76.4236 76.5999H66.2631L72.5198 67.8856C71.5087 67.6409 70.5698 67.2203 69.7069 66.62C68.8555 66.0196 68.1751 65.2817 67.6771 64.3984C67.1829 63.5151 66.9321 62.5286 66.9321 61.4388C66.9321 60.4293 67.297 59.416 68.0306 58.4066C68.7528 57.3933 70.0262 56.5406 71.8318 55.8447C73.6411 55.1487 76.0131 54.8008 78.9362 54.8008H92.799V76.5999" fill="#EBB631"/>
    <path d="M122.33 76.5999H111.558L105.179 68.073L103.454 69.4878V76.5999H94.4601V54.8008H103.454V61.4273L110.718 54.8008H121.141L111.558 63.0715L122.33 76.5999Z" fill="#EBB631"/>
    <path d="M55.6185 72.3026L52.9539 64.766L50.2551 72.3026H55.6185ZM67.5466 80.126H58.3363L57.4127 77.0976H48.5179L47.598 80.126H38.3916L45.3021 63.7948L48.2062 57H57.7281L64.6349 73.3197L67.5466 80.126Z" fill="#EBB631"/>
    <path d="M122.999 32.1035L55.7187 44.6301L56.1406 45.3146L122.999 35.5411V32.1035ZM6.21228 48.58L47.0521 51.2337L47.493 50.4804L6.21228 45.1692V48.58ZM6.21228 53.0538H46.0143L46.4059 52.3502L6.21228 49.4901V53.0538ZM122.999 45.2495L59.2994 50.4919L59.7213 51.184L122.996 48.6183V45.2495H122.999ZM122.999 40.7758L58.1895 48.6718L58.6152 49.3715L122.999 44.221V40.7758ZM122.999 36.5238L56.9427 46.6337L57.3684 47.3297L122.999 39.969V36.5238ZM122.999 53.0538V49.5245L60.4208 52.3235L60.8693 53.0538H122.999Z" fill="white"/>
    <path d="M6.21228 44.198L48.143 49.4174L48.5801 48.6679L6.21228 40.791V44.198Z" fill="white"/>
    <path d="M6.21228 39.9616L49.2947 47.3682L49.7015 46.6494L6.21228 36.5547V39.9616Z" fill="white"/>
    <path d="M6.21228 35.407L50.4845 45.4213L50.8912 44.6681L6.21228 32V35.407Z" fill="white"/>
    </g>
    <defs>
    <clipPath id="clip0_10_18956">
    <rect width="117" height="63" fill="white" transform="translate(6 32)"/>
    </clipPath>
    </defs>
    </svg>
    