<svg width="20" height="20" viewBox="0 0 20 20" fill="none" xmlns="http://www.w3.org/2000/svg">
<path fill-rule="evenodd" clip-rule="evenodd" d="M1.97963 4.72497C2.22145 3.32106 3.33735 2.28906 4.74573 2.07476C6.09517 1.86944 7.9464 1.66699 10.0001 1.66699C12.0538 1.66699 13.905 1.86944 15.2544 2.07476C16.6628 2.28906 17.7787 3.32105 18.0205 4.72497C18.1891 5.70342 18.3334 6.94637 18.3334 8.33366C18.3334 9.72095 18.1891 10.9639 18.0205 11.9424C17.7787 13.3463 16.6628 14.3783 15.2544 14.5926C14.0199 14.7804 12.3654 14.9658 10.5201 14.996L5.42402 18.0074C4.86851 18.3356 4.16675 17.9352 4.16675 17.29V14.4536C3.03888 14.0786 2.18721 13.1475 1.97963 11.9424C1.81109 10.9639 1.66675 9.72095 1.66675 8.33366C1.66675 6.94637 1.81109 5.70342 1.97963 4.72497ZM5.00008 6.66699C5.00008 6.20676 5.37318 5.83366 5.83342 5.83366H14.1667C14.627 5.83366 15.0001 6.20676 15.0001 6.66699C15.0001 7.12723 14.627 7.50033 14.1667 7.50033H5.83342C5.37318 7.50033 5.00008 7.12723 5.00008 6.66699ZM5.00008 10.0003C5.00008 9.54009 5.37318 9.16699 5.83342 9.16699H9.16675C9.62699 9.16699 10.0001 9.54009 10.0001 10.0003C10.0001 10.4606 9.62699 10.8337 9.16675 10.8337H5.83342C5.37318 10.8337 5.00008 10.4606 5.00008 10.0003Z" fill="white"/>
</svg>
