<svg width="67" height="36" viewBox="0 0 67 36" fill="none" xmlns="http://www.w3.org/2000/svg">
<rect width="67" height="36" rx="4" fill="#F4F6F9" fill-opacity="0.15"/>
<g clip-path="url(#clip0_8_7790)">
<path d="M30.2023 25.73H26.4258L28.7878 11.0898H32.5642L30.2023 25.73Z" fill="white"/>
<path d="M43.8926 11.4475C43.1477 11.1513 41.9662 10.8242 40.5054 10.8242C36.7759 10.8242 34.1496 12.8177 34.1335 15.6677C34.1025 17.7704 36.0139 18.9383 37.4434 19.6395C38.9044 20.3559 39.401 20.8235 39.401 21.4621C39.3862 22.4429 38.2205 22.895 37.1332 22.895C35.6253 22.895 34.8175 22.6619 33.5897 22.1163L33.0925 21.8823L32.564 25.1687C33.4498 25.5732 35.0817 25.9322 36.7759 25.9478C40.7385 25.9478 43.3183 23.9853 43.3489 20.9481C43.3639 19.2815 42.3547 18.0045 40.1788 16.961C38.858 16.2912 38.049 15.8395 38.049 15.1541C38.0646 14.531 38.7332 13.8928 40.2243 13.8928C41.452 13.8616 42.3541 14.1574 43.0374 14.4534L43.379 14.6089L43.8926 11.4475Z" fill="white"/>
<path d="M48.9113 20.5435C49.2223 19.7024 50.4191 16.4473 50.4191 16.4473C50.4034 16.4786 50.7294 15.5907 50.9159 15.0457L51.1798 16.3072C51.1798 16.3072 51.895 19.8115 52.0503 20.5435C51.4602 20.5435 49.6572 20.5435 48.9113 20.5435ZM53.5729 11.0898H50.6518C49.751 11.0898 49.0666 11.3544 48.6779 12.3045L43.0684 25.7297H47.031C47.031 25.7297 47.6834 23.9228 47.8236 23.5336C48.2583 23.5336 52.1131 23.5336 52.6724 23.5336C52.7808 24.0477 53.123 25.7297 53.123 25.7297H56.6197L53.5729 11.0898Z" fill="white"/>
<path d="M23.2712 11.0898L19.5727 21.073L19.1685 19.0483C18.4848 16.7121 16.3404 14.1738 13.9473 12.9117L17.3349 25.7144H21.3285L27.2646 11.0898H23.2712Z" fill="white"/>
<path d="M16.1382 11.0898H10.0622L10 11.3857C14.7397 12.6006 17.8788 15.529 19.1685 19.0489L17.8476 12.3205C17.6301 11.3854 16.9618 11.1207 16.1382 11.0898Z" fill="#B1B4B9"/>
</g>
<defs>
<clipPath id="clip0_8_7790">
<rect width="47" height="16" fill="white" transform="translate(10 10)"/>
</clipPath>
</defs>
</svg>
