<svg width="36" height="36" viewBox="0 0 36 36" fill="none" xmlns="http://www.w3.org/2000/svg">
    <rect width="36" height="36" rx="6" fill="#5946D7" fill-opacity="0.1"/>
    <path d="M23.8333 17.9997H12.1666" stroke="#2E1066" stroke-width="1.5" stroke-linecap="round" stroke-linejoin="round"/>
    <path d="M23.8333 17.9997H12.1666" stroke="#410F9E" stroke-width="1.5" stroke-linecap="round" stroke-linejoin="round"/>
    <path d="M23.8333 17.9997H12.1666" stroke="#453888" stroke-width="1.5" stroke-linecap="round" stroke-linejoin="round"/>
    <path d="M23.8333 17.9997H12.1666" stroke="#5946D7" stroke-width="1.5" stroke-linecap="round" stroke-linejoin="round"/>
    <path d="M23.8333 17.9997H12.1666" stroke="#6B59CC" stroke-width="1.5" stroke-linecap="round" stroke-linejoin="round"/>
    <path d="M19.6666 22.1667L23.8333 18" stroke="#2E1066" stroke-width="1.5" stroke-linecap="round" stroke-linejoin="round"/>
    <path d="M19.6666 22.1667L23.8333 18" stroke="#410F9E" stroke-width="1.5" stroke-linecap="round" stroke-linejoin="round"/>
    <path d="M19.6666 22.1667L23.8333 18" stroke="#453888" stroke-width="1.5" stroke-linecap="round" stroke-linejoin="round"/>
    <path d="M19.6666 22.1667L23.8333 18" stroke="#5946D7" stroke-width="1.5" stroke-linecap="round" stroke-linejoin="round"/>
    <path d="M19.6666 22.1667L23.8333 18" stroke="#6B59CC" stroke-width="1.5" stroke-linecap="round" stroke-linejoin="round"/>
    <path d="M19.6666 13.833L23.8333 17.9997" stroke="#2E1066" stroke-width="1.5" stroke-linecap="round" stroke-linejoin="round"/>
    <path d="M19.6666 13.833L23.8333 17.9997" stroke="#410F9E" stroke-width="1.5" stroke-linecap="round" stroke-linejoin="round"/>
    <path d="M19.6666 13.833L23.8333 17.9997" stroke="#453888" stroke-width="1.5" stroke-linecap="round" stroke-linejoin="round"/>
    <path d="M19.6666 13.833L23.8333 17.9997" stroke="#5946D7" stroke-width="1.5" stroke-linecap="round" stroke-linejoin="round"/>
    <path d="M19.6666 13.833L23.8333 17.9997" stroke="#6B59CC" stroke-width="1.5" stroke-linecap="round" stroke-linejoin="round"/>
    </svg>
    